<?xml version="1.0" encoding="iso-8859-1"?>
<!-- Generator: Adobe Illustrator 19.1.0, SVG Export Plug-In . SVG Version: 6.00 Build 0)  -->
<svg version="1.1" id="Capa_1" xmlns="http://www.w3.org/2000/svg" xmlns:xlink="http://www.w3.org/1999/xlink" x="0px" y="0px"
	 viewBox="0 0 450.283 450.283" style="enable-background:new 0 0 450.283 450.283;" xml:space="preserve">
<g>
	<g>
		<path style="fill:#222222;" d="M249.696,0.002c-0.932,0.029-1.862,0.123-2.781,0.281H70.009c-11.045,0.001-19.999,8.955-20,20v410
			c0.001,11.045,8.955,19.999,20,20h310c11.045-0.001,19.999-8.955,20-20v-276.75c1.195-7.266-1.698-14.601-7.531-19.094
			L265.759,7.721C261.91,2.773,255.964-0.084,249.696,0.002L249.696,0.002z M90.009,40.283h140v106.781
			c-1.054,6.432,1.092,12.973,5.75,17.531c0.052,0.052,0.104,0.104,0.156,0.156c0.093,0.084,0.187,0.168,0.281,0.25
			c4.549,4.353,10.882,6.309,17.094,5.281h106.719v240h-270V40.283z M270.009,68.565l61.719,61.719h-61.719V68.565z"/>
	</g>
	<g>
	</g>
	<g>
	</g>
	<g>
	</g>
	<g>
	</g>
	<g>
	</g>
	<g>
	</g>
	<g>
	</g>
	<g>
	</g>
	<g>
	</g>
	<g>
	</g>
	<g>
	</g>
	<g>
	</g>
	<g>
	</g>
	<g>
	</g>
	<g>
	</g>
</g>
<g>
</g>
<g>
</g>
<g>
</g>
<g>
</g>
<g>
</g>
<g>
</g>
<g>
</g>
<g>
</g>
<g>
</g>
<g>
</g>
<g>
</g>
<g>
</g>
<g>
</g>
<g>
</g>
<g>
</g>
</svg>
