<svg xmlns="http://www.w3.org/2000/svg" width="786" height="133" viewBox="0 0 786 133">
    <g fill="none" fill-rule="evenodd">
        <path fill="#E88596" d="M.586 131.321h147.601V1.693H.586z"/>
        <path fill="#27337C" d="M96.439 81.433c-3.052.42-9.026 1.025-11.912 1.316-2.621.27-5.46.403-8.415.573-2.627.147-5.368.019-8.159.047-2.772.014-5.618.005-8.434-.325-5.749-.694-6.949-1.5-8.496-1.691-3.197-.389-5.616-.975-8.315-1.559-2.211-.474-4.485-.977-5.835-1.024-.15-.148-.636-1.108-.722-1.308-1.461-3.447-1.436-3.028-2.916-8.021-.736-2.449-1.697-7.554-2.203-10.838-.41-2.648-.947-3.408-1.138-4.045-.761-2.532-.497-4.049-.628-6.819-.133-2.753-.266-9.489-.133-12.267.208-4.404.483-4.955 1.108-7.642.633-2.698 1.986-5.476 3.152-7.965 1.014-2.161 1.533-4.138 3.011-6.057 1.697-2.198 2.113-3.18 2.966-3.985.069-.066.711-.225.802-.237 2.08-.686 3.977-.9 5.063-1.239.259-.021 1.35.094 1.6.094.466 0 3.469.104 7.94.214 2.338.051 5.074.27 8.045.329 2.672.066 5.541.094 8.496.147 2.702.04 5.477-.081 8.243-.047 2.555.032 5.096.234 7.56.246 2.666.011 5.246-.089 7.653-.116 2.717-.022 5.216-.13 7.388-.208 3.31-.115 5.879-.106 7.237-.378 2.625-.516 4.583-.796 6.318-.796.473.122.659.291 1.05.467 1.472.67 3.5 2.182 3.5 2.182 0 .947-.342 7.223.108 11.589.255 2.491.7 5.316 1.08 8.228.364 2.735.542 4.917.928 7.574.389 2.67 1.347 6.47 1.669 8.611.605 3.881.772 1.788 1.305 5.033.708 4.204.312 3.76.784 8.602.266 2.747-.195 8.573-.634 11.367-.45 2.849-1.641 5.057-2.568 5.449-1.922.822-8.144 1.7-6.899 1.497-3.166.503-2.913.131-4.808.503-4.946 1-6.001.78-9.367 1.091-3.133.303-.739.561-4.397 1.058-.272.039-.652.303-1.027.35"/>
        <path fill="#FFFFFE" d="M44.635 14.363c1.097-2.416 2.055-2.239 4.352-2.398 1.339-.098 2.994.279 5.188.608 1.45.225 1.467-.214 3.383.313 1.43.394 1.696.29 3.907.63 1.742.261 7.01 1.421 9.054 1.64 1.841.185 3.785 1.157 5.771 1.304 1.883.142 3.811.307 5.721.398 1.916.094 3.844.145 5.691.199 1.991.032 3.918-.362 5.724-.383 1.996-.021 3.838-.378 5.465-.506 2.236-.164 4.069-.493 5.257-.859 2.275-.69 4.136-.577 5.727-.291 2.083.363 3.458 1.223 4.26 3.004.639 1.431.259 2.822.628 5.393.186 1.227-.391 3.283-.419 5.789-.026 1.711.072 3.645.091 5.679.017 1.862.294 3.811.334 5.789.041 1.925.024 3.866.074 5.766.059 2.017.156 3.958.225 5.783.059 2.056.106 3.941.159 5.543.125 3.307.611 2.471.3 5.514-.295 2.772.616 3.289-2.022 5.358-1.072.841-2.711 1.877-5.06 2.102-.706.073-2.525.647-5.23 1.305-1.5.378-3.266.767-5.246 1.217-1.594.364-3.424.611-5.288.977-1.677.323-3.41.514-5.257.806-1.674.272-3.491.344-5.279.563-1.686.214-3.458.045-5.225.203-1.627.142-3.285.295-4.968.367-1.369.061.028.45-.711.692-1.686.558-2.141.355-5.354.299-1.611-.022-3.2-.005-5.175-.116a111.44 111.44 0 0 1-5.401-.45c-1.788-.2-3.508-.736-5.188-1.067-1.889-.372-3.796-.35-5.279-.947-1.884-.747-3.414-1.516-4.089-2.724-.535-.953-.68-3.219-.888-5.66-.125-1.569-.028-3.402-.039-5.402-.014-1.66-.314-3.444-.261-5.317.041-1.74.022-3.557.122-5.417.092-1.742.161-3.531.289-5.31.133-1.783.633-3.537.783-5.298.156-1.779.481-3.523.658-5.234.181-1.76.134-3.492.325-5.123.219-1.811.664-3.494.889-5.073.269-1.95.075-3.771.344-5.217.464-2.588 1.311-4.115 1.658-4.449"/>
        <path fill="#27337C" d="M135.04 115.248c-1.134.375-5.333 1.415-8.901 1.329-1.892-.048-4.636.236-8.035.385-2.411.097-4.921-.331-7.907-.161-2.425.142-5.032.109-7.751.289-2.711.172-5.527.516-8.437.737-2.63.196-4.132-.116-6.874.121-2.769.236-4.924-.664-7.745-.397-2.555.258-6.971.3-9.518.564-2.619.278-5.616 1.316-8.176 1.616-2.656.306-4.821.111-7.354.444-2.661.353-5.68 1.22-8.165 1.595-2.616.408-5.127.824-7.482 1.252-2.544.461-4.952.728-7.099 1.233-1.98.445-3.716 1.133-5.29 1.611-3.741 1.144-6.655 1.814-8.929 2.136-4.866.674-7.038-.322-8.371-2.281-1.188-1.746-1.608-4.562-1.927-6.992-.403-2.949-.275-1.595-.789-4.314-.747-4.01-1.402-6.554 1.003-9.078 1.247-1.319 3.469-2.858 6.043-4.019 3.699-1.994 2.233-1.711 7.479-3.818 2.072-.836 4.624-1.742 7.648-2.725 2.342-.758 5.066-1.255 8.021-2.066 2.436-.658 5.08-1.314 7.943-1.966 2.538-.576 5.194-1.369 8.085-1.917 2.557-.5 5.26-.972 8.103-1.427 2.73-.447 5.616-.761 8.618-1.161 2.666-.35 5.454-.597 8.34-.909 2.566-.269 5.194-.763 7.929-.999 2.667-.225 6.36.033 9.182-.153 2.505-.158 4.138-.664 6.782-.794 2.569-.125 5.218-.178 7.923-.259 2.638-.083 5.34-.158 8.121-.197 2.299-.041 4.646-.172 7.048-.186 3.894-.005 7.688.214 9.657 1.483 2.946 1.883 2.613 2.997 2.73 6.713.141 4.177-.256 2.152.419 6.285.728 4.457.83 8.354 1.119 12.231.161 2.013-1.183 3.752-3.443 5.795"/>
        <path fill="#FFFFFE" d="M27.853 108.514c1.397 0 2.51-1.075 2.51-2.605 0-1.533-1.113-2.849-2.51-2.849-1.392 0-2.328 1.316-2.328 2.849 0 1.53.936 2.605 2.328 2.605M42.927 116.021c1.384.202 2.58-1.217 2.58-2.603 0-1.397-1.183-2.31-2.58-2.31-1.391 0-2.452.913-2.466 2.31-.05 3.4 1.791 2.495 2.466 2.603M34.412 117.821c1.403 0 2.606-1.297 2.606-2.689 0-1.391-1.203-2.488-2.606-2.488-1.391 0-2.341 1.097-2.341 2.488 0 1.392.95 2.689 2.341 2.689M67.525 107.083c1.397 0 2.624-1.282 2.624-2.679 0-1.386-1.227-2.297-2.624-2.297-1.391 0-3.088.561-2.488 2.374.444 1.32 1.097 2.602 2.488 2.602M53.189 110.108c1.206 0 2.33-.972 2.33-2.358 0-1.391-1.124-2.269-2.33-2.269-1.191 0-2.124.878-2.124 2.269 0 1.386.933 2.358 2.124 2.358M46.446 108.23c1.352.301 2.425-1.169 2.425-2.554 0-1.403-1.034-2.558-2.425-2.558-1.402 0-2.494 1.155-2.494 2.558 0 1.385-.039 1.993 2.494 2.554M61.429 99.171c1.391 0 2.477-.355 2.477-1.752 0-1.392-1.327-2.427-2.713-2.427-1.397 0-2.644 1.035-2.644 2.427 0 1.397 1.489 1.752 2.88 1.752M68.553 95.475c1.394 0 2.641-1.089 2.641-2.48 0-1.395-1.247-2.391-2.641-2.391-1.403 0-2.628.996-2.628 2.391 0 1.391 1.225 2.48 2.628 2.48"/>
        <path fill="#FFF026" d="M25.722 117.97c1.008 0 1.817-.772 1.817-1.88 0-1.108-.809-2.055-1.817-2.055-1.005 0-1.68.947-1.68 2.055s.675 1.88 1.68 1.88M47.44 98.03c1.014 0 1.886-.933 1.886-1.939 0-1.005-.872-1.799-1.886-1.799-1.005 0-1.686.794-1.686 1.799 0 1.006.681 1.939 1.686 1.939M38.898 106.692c1.011 0 1.793-.256 1.793-1.266 0-1.006-.955-1.747-1.96-1.747-1.011 0-1.905.741-1.905 1.747 0 1.01 1.069 1.266 2.072 1.266M61.096 111.119c1.013 0 1.913-.783 1.913-1.783 0-1.014-.9-1.73-1.913-1.73-1.011 0-1.894.716-1.894 1.73 0 1 .883 1.783 1.894 1.783M97.15 112.03c1.944 0 3.56-1.689 3.56-3.619 0-1.93-1.697-3.594-3.635-3.594-1.939 0-3.239 1.686-3.239 3.611 0 1.93 1.378 3.602 3.314 3.602M92.959 99.932c1.939 0 3.71-1.71 3.71-3.657 0-1.922-1.771-3.436-3.71-3.436-1.944 0-3.388 1.514-3.388 3.436 0 1.947 1.444 3.657 3.388 3.657M113.702 100.865c1.939 0 3.452-1.419 3.452-3.352 0-1.935-1.513-3.257-3.452-3.257-1.938 0-3.205 1.322-3.205 3.257 0 1.933 1.267 3.352 3.205 3.352M106.337 107.692c1.938 0 3.505-1.822 3.505-3.755 0-1.93-1.567-3.169-3.505-3.169-1.939 0-3.833 1.239-3.833 3.169 0 1.933 1.894 3.755 3.833 3.755"/>
        <path stroke="#27337C" stroke-width=".2" d="M57.019 31.761h5.518v-5.516h-5.518v5.516zm41.497-4.439h5.519V21.8h-5.519v5.522zm7.826 25.242h5.519v-5.503h-5.519v5.503zm-24.781 5.717h5.527v-5.513h-5.527v5.513zm-12.189-1.458h5.521v-5.514h-5.521v5.514zm-19.596 7.38l2.494-4.907-4.916-2.5-2.51 4.905 4.932 2.502zm8.965-27.785l-7.36 17.225 21.165-7.114 28.689-16.304v-2.987l-42.494 9.18zm1.386-1.38l19.788 2.987 20.934-6.89 8.254 10.038-11.353 2.144-37.623-8.279zM96.93 42.62l-13.569 6.885-3.105-8.945 16.674 2.06zm-23.692 4.824l10.084.768-10.084-.768zm10.084.768L59.716 34.947v-2.99l23.606 16.255zm17.752-18.41L97.75 40.608l3.324-10.806zm7.826 14.88l-.069 2.307.069-2.307zM50.604 56.324l-1.134 2.028 1.134-2.028zm21.484-6.589l-.005 1.649.005-1.649zM84.1 51.178v1.836-1.836z"/>
        <path fill="#DC3D50" d="M101.016 34.502a2.563 2.563 0 0 0 2.568-2.563 2.569 2.569 0 0 0-2.568-2.57 2.576 2.576 0 0 0-2.586 2.57 2.571 2.571 0 0 0 2.586 2.563M72.247 50.035a2.713 2.713 0 0 0 2.715-2.706 2.712 2.712 0 0 0-2.715-2.709 2.707 2.707 0 1 0 0 5.415M80.192 41.33a2.572 2.572 0 1 0 0-5.146 2.574 2.574 0 0 0-2.574 2.572 2.577 2.577 0 0 0 2.574 2.574"/>
        <path fill="#E77E9C" d="M51.659 56.941a2.57 2.57 0 1 0 0-5.142 2.572 2.572 0 0 0 0 5.142M97.675 45.309a2.573 2.573 0 0 0 2.585-2.571 2.576 2.576 0 0 0-2.585-2.571 2.57 2.57 0 1 0 0 5.142"/>
        <path fill="#FFF026" d="M59.624 38.34a2.565 2.565 0 0 0 2.574-2.563 2.573 2.573 0 0 0-2.574-2.579 2.58 2.58 0 0 0-2.58 2.579 2.572 2.572 0 0 0 2.58 2.563M108.583 45.075a2.57 2.57 0 0 0 2.578-2.569 2.576 2.576 0 0 0-5.152 0 2.569 2.569 0 0 0 2.574 2.569M84.197 51.504c1.428 0 2.58-1.15 2.58-2.574a2.573 2.573 0 0 0-2.58-2.568 2.576 2.576 0 0 0-2.572 2.568 2.576 2.576 0 0 0 2.572 2.574"/>
        <path fill="#1A1919" d="M243.907 27.222c-2.322-11.728-11.734-17.655-23.226-17.655-19.755 0-28.111 16.264-28.111 33.57 0 18.933 8.356 34.733 28.222 34.733 14.525 0 22.887-10.225 23.928-23.93h11.034c-2.088 20.681-14.977 33.22-35.893 33.22-25.786 0-38.328-19.046-38.328-43.211 0-24.045 13.703-43.68 39.259-43.68 17.308 0 31.602 9.298 34.154 26.953h-11.039M264.93 2.248h9.882v31.711h.23c3.25-7.202 11.728-10.221 18.935-10.221 15.797 0 20.668 9.059 20.668 21.952v39.495h-9.867V44.529c0-7.318-4.652-12.076-12.198-12.076-11.964 0-17.768 8.013-17.768 18.813v33.919h-9.882V2.248M366.452 49.409c-.464-9.412-7.54-16.959-17.306-16.959-10.336 0-16.493 7.783-17.19 16.959h34.496zm9.528 16.724c-2.674 13.245-12.197 20.449-25.667 20.449-19.166 0-28.228-13.245-28.811-31.598 0-18.006 11.848-31.243 28.228-31.243 21.257 0 27.755 19.857 27.184 34.38h-44.958c-.348 10.451 5.579 19.746 18.699 19.746 8.137 0 13.827-3.949 15.566-11.734h9.759zM426.853 44.412c-1.511-7.549-6.728-11.959-14.866-11.959-14.289 0-18.704 11.263-18.704 23.46 0 11.034 4.996 21.954 17.543 21.954 9.529 0 15.219-5.574 16.491-14.636h10.103c-2.196 14.636-11.375 23.348-26.483 23.348-18.344 0-28.108-12.778-28.108-30.666 0-18.006 9.298-32.172 28.338-32.172 13.598 0 24.518 6.386 25.91 20.671h-10.224M445.549 2.248h9.879v49.133l27.414-26.252h13.237l-23.81 21.839 25.557 38.217h-12.548l-20.557-31.36-9.293 8.595v22.765h-9.879V2.248M544.402 41.973h21.612c12.423.121 18.113-5.345 18.113-15.216 0-9.872-5.69-15.217-18.113-15.217h-21.612v30.433zM533.371 2.249h36.351c16.499 0 25.45 9.176 25.45 24.508 0 15.337-8.951 24.624-25.45 24.509h-25.32v33.919h-11.031V2.249zM627.805 77.867c10.337 0 18.699-8.129 18.699-22.651 0-14.634-8.362-22.763-18.699-22.763-10.331 0-18.705 8.129-18.705 22.763 0 14.522 8.374 22.651 18.705 22.651m0-54.126c19.046 0 29.153 13.818 29.153 31.475 0 17.535-10.107 31.363-29.153 31.363-19.052 0-29.158-13.828-29.158-31.363 0-17.657 10.106-31.475 29.158-31.475M666.6 85.182h9.864V25.129H666.6v60.053zm.005-70.853h9.865V2.248h-9.865v12.081zM688.901 25.129h9.293v9.529h.23c4.18-7.433 10.914-10.92 19.519-10.92 15.797 0 20.673 9.062 20.673 21.952v39.495h-9.87V44.529c0-7.318-4.647-12.082-12.201-12.082-11.963 0-17.774 8.017-17.774 18.819v33.919h-9.87V25.129M764.289 25.129h11.964v8.712h-11.964v37.291c0 4.527 1.28 5.338 7.437 5.338h4.527v8.715h-7.551c-10.215 0-14.284-2.091-14.284-13.128V33.841h-10.225v-8.712h10.225V7.128h9.871v18.001M200.804 113.396c-.403-3.757-2.902-5.368-6.51-5.368-2.938 0-5.877 1.064-5.877 4.485 0 3.23 4.197 3.71 8.416 4.657 4.19.959 8.381 2.436 8.381 7.577 0 5.587-5.471 7.837-10.251 7.837-5.887 0-10.85-2.869-10.85-9.267h3.313c0 4.407 3.672 6.323 7.646 6.323 3.157 0 6.654-.997 6.654-4.788 0-3.596-4.193-4.221-8.379-5.143-4.196-.917-8.42-2.125-8.42-6.946 0-5.327 4.743-7.679 9.523-7.679 5.357 0 9.443 2.539 9.662 8.312h-3.308M221.755 129.64c6.399 0 9.079-5.516 9.079-10.809 0-5.293-2.68-10.803-9.079-10.803-6.396 0-9.073 5.51-9.073 10.803 0 5.293 2.677 10.809 9.073 10.809m0-24.556c8.346 0 12.57 6.621 12.57 13.747 0 7.134-4.224 13.753-12.57 13.753-8.339 0-12.572-6.619-12.572-13.753 0-7.126 4.233-13.747 12.572-13.747M239.769 105.706h17.238v2.944h-13.742v8.346h12.056v2.932h-12.056v12.024h-3.496v-26.246M268.479 108.653h-8.753v-2.944h20.99v2.944h-8.743v23.299h-3.494v-23.299M309.913 131.952h-3.647l-5.995-22.05h-.064l-6.072 22.05h-3.638l-6.729-26.243h3.569l5.146 21.831h.075l5.877-21.831h3.791l5.801 21.831h.081l5.327-21.831h3.49l-7.012 26.243M323.916 121.106h8.898l-4.38-12.231h-.075l-4.443 12.231zm2.607-15.4h3.861l10.256 26.246h-3.86l-2.863-7.903h-11.104l-2.944 7.903h-3.596l10.25-26.246zM355.312 117.798c3.266 0 6.065-.846 6.065-4.668 0-2.564-1.397-4.477-4.668-4.477h-8.676v9.145h7.279zm-10.781-12.089h12.356c4.929 0 7.976 2.677 7.976 6.873 0 3.161-1.397 5.772-4.555 6.652v.072c3.055.592 3.672 2.827 3.939 5.407.213 2.573.069 5.442 1.535 7.239h-3.896c-.989-1.059-.439-3.897-.953-6.467-.375-2.569-.994-4.742-4.379-4.742h-8.521v11.209h-3.502v-26.243zM371.04 105.706h18.127v2.944h-14.625v8.346h13.627v2.932h-13.627v9.084h14.735v2.94H371.04v-26.246M412.323 108.653h-8.745v-2.944h20.984v2.944h-8.748v23.299h-3.491v-23.299M428.79 105.706h18.127v2.944H432.28v8.346h13.641v2.932H432.28v9.084h14.744v2.94H428.79v-26.246M471.028 113.613c-.728-3.716-3.71-5.585-7.352-5.585-6.257 0-8.895 5.146-8.895 10.617 0 5.994 2.638 10.995 8.928 10.995 4.597 0 7.249-3.235 7.575-7.571h3.49c-.652 6.538-4.743 10.515-11.353 10.515-8.165 0-12.136-6.038-12.136-13.683 0-7.604 4.34-13.817 12.424-13.817 5.48 0 10.004 2.944 10.807 8.529h-3.488M480.437 105.706h3.491v11.29h13.822v-11.29h3.494v26.246h-3.494v-12.024h-13.822v12.024h-3.491v-26.246M508.265 105.706h3.713l13.816 21.288h.076v-21.288h3.307v26.246h-3.821l-13.708-21.061h-.07v21.061h-3.313v-26.246M547.263 129.64c6.396 0 9.084-5.516 9.084-10.809 0-5.293-2.688-10.803-9.084-10.803-6.393 0-9.076 5.51-9.076 10.803 0 5.293 2.683 10.809 9.076 10.809m0-24.556c8.345 0 12.572 6.621 12.572 13.747 0 7.134-4.227 13.753-12.572 13.753-8.344 0-12.57-6.619-12.57-13.753 0-7.126 4.226-13.747 12.57-13.747M565.092 105.706h3.491v23.306h13.903v2.94h-17.394v-26.246M597.361 129.64c6.398 0 9.079-5.516 9.079-10.809 0-5.293-2.681-10.803-9.079-10.803-6.396 0-9.078 5.51-9.078 10.803 0 5.293 2.682 10.809 9.078 10.809m0-24.556c8.351 0 12.575 6.621 12.575 13.747 0 7.134-4.224 13.753-12.575 13.753-8.334 0-12.569-6.619-12.569-13.753 0-7.126 4.235-13.747 12.569-13.747M635.151 128.688c-2.02 2.749-5.321 3.896-8.415 3.896-7.832 0-12.495-6.404-12.495-13.245 0-7.637 4.191-14.255 12.495-14.255 5.732 0 10.292 2.572 11.283 8.709h-3.49c-.7-3.965-3.897-5.765-7.793-5.765-6.361 0-9.001 5.51-9.001 11.139 0 5.472 3.155 10.473 9.001 10.473 5.398 0 8.639-3.79 8.415-8.57h-8.385v-2.941h11.515v13.828h-2.211l-.919-3.269M644.893 131.952h3.494v-26.243h-3.494zM655.594 105.706h18.121v2.944h-14.631v8.346h13.634v2.932h-13.634v9.084h14.743v2.94h-18.233v-26.246M694.552 113.396c-.405-3.757-2.899-5.368-6.501-5.368-2.946 0-5.884 1.064-5.884 4.485 0 3.23 4.19 3.71 8.419 4.657 4.186.959 8.385 2.436 8.385 7.577 0 5.587-5.482 7.837-10.262 7.837-5.879 0-10.842-2.869-10.842-9.267h3.31c0 4.407 3.678 6.323 7.644 6.323 3.157 0 6.648-.997 6.648-4.788 0-3.596-4.179-4.221-8.379-5.143-4.19-.917-8.409-2.125-8.409-6.946 0-5.327 4.727-7.679 9.515-7.679 5.368 0 9.448 2.539 9.673 8.312h-3.317M715.462 105.706h3.502v23.306h13.887v2.94h-17.389v-26.246M740.03 108.653h-8.748v-2.944h20.984v2.944h-8.743v23.299h-3.493v-23.299M759.993 129.018h5.801c2.394 0 8.829-.664 8.829-10.337 0-6.24-2.319-10.031-8.754-10.031h-5.876v20.368zm-3.497-23.309h9.009c8.084 0 12.606 4.038 12.606 12.492 0 8.793-3.861 13.751-12.606 13.751h-9.009v-26.243zM780.944 131.952h4.08v-4.079h-4.08z"/>
        <path fill="#1A1919" d="M773.401 12.432h1.306c1.102 0 2.116-.055 2.116-1.322 0-1.068-.923-1.232-1.761-1.232h-1.661v2.554zm-1.247-3.563h3.105c1.91 0 2.816.749 2.816 2.296 0 1.449-.922 2.056-2.122 2.182l2.302 3.546h-1.338l-2.189-3.452h-1.327v3.452h-1.247V8.869zm2.685 9.882c3.172 0 5.638-2.538 5.638-5.897 0-3.29-2.466-5.821-5.638-5.821-3.221 0-5.679 2.531-5.679 5.821 0 3.359 2.458 5.897 5.679 5.897zm0-12.733c3.744 0 6.885 2.96 6.885 6.836 0 3.951-3.141 6.905-6.885 6.905-3.765 0-6.931-2.954-6.931-6.905 0-3.876 3.166-6.836 6.931-6.836z"/>
    </g>
</svg>
