<svg xmlns="http://www.w3.org/2000/svg" width="400" height="77" viewBox="0 0 400 77">
    <g fill="#EC1D25" fill-rule="nonzero">
        <path d="M0 2.53h31.593v14.582H18.947v13.816h11.836v13.861H18.947v16.022h13.906v14.581H0zM82.538 34.258H63.591V21.594c0-3.681-.203-5.979-.608-6.892a2.608 2.608 0 0 0-2.678-1.371c-1.56 0-2.55.555-2.97 1.665-.42 1.11-.63 3.51-.63 7.2v33.845c0 3.54.21 5.851.63 6.931a2.7 2.7 0 0 0 2.835 1.62 2.663 2.663 0 0 0 2.768-1.623c.435-1.083.653-3.625.653-7.624v-9.16h18.947v2.838c0 7.543-.533 12.891-1.6 16.046-1.067 3.155-3.422 5.919-7.066 8.293A24.194 24.194 0 0 1 60.4 76.923c-5.55 0-10.126-1.005-13.726-3.015a14.654 14.654 0 0 1-7.156-8.35c-1.17-3.553-1.755-8.9-1.755-16.043V28.228a94.713 94.713 0 0 1 .54-11.815 16.545 16.545 0 0 1 3.218-7.582 17.969 17.969 0 0 1 7.426-5.74A26.876 26.876 0 0 1 59.856 1c5.58 0 10.186 1.079 13.816 3.237 3.63 2.158 6.015 4.847 7.156 8.068 1.14 3.22 1.71 8.23 1.71 15.032v6.921zM111.071 39.254V51.81h-23.9V39.254zM160.711 34.258h-18.947V21.594c0-3.681-.203-5.979-.608-6.892a2.608 2.608 0 0 0-2.678-1.371c-1.56 0-2.55.555-2.97 1.665-.42 1.11-.63 3.51-.63 7.2v33.845c0 3.54.21 5.851.63 6.931a2.7 2.7 0 0 0 2.835 1.62 2.663 2.663 0 0 0 2.768-1.623c.435-1.083.653-3.625.653-7.624v-9.16h18.947v2.838c0 7.543-.533 12.891-1.6 16.046-1.067 3.155-3.422 5.919-7.066 8.293a24.194 24.194 0 0 1-13.479 3.561c-5.55 0-10.126-1.005-13.726-3.015a14.654 14.654 0 0 1-7.156-8.35c-1.17-3.553-1.755-8.9-1.755-16.043V28.228a94.713 94.713 0 0 1 .54-11.815 16.545 16.545 0 0 1 3.218-7.582 17.969 17.969 0 0 1 7.426-5.74A26.876 26.876 0 0 1 138.029 1c5.58 0 10.186 1.079 13.816 3.237 3.63 2.158 6.015 4.847 7.155 8.068 1.14 3.22 1.71 8.23 1.71 15.032l.001 6.921zM208.1 36.644V51.27a61.742 61.742 0 0 1-.81 11.815 16.583 16.583 0 0 1-3.465 7.021 15.624 15.624 0 0 1-6.82 4.812 27.187 27.187 0 0 1-9.562 1.554 34.216 34.216 0 0 1-10.216-1.326 13.9 13.9 0 0 1-6.5-4.008 15.789 15.789 0 0 1-3.308-6.481 48.693 48.693 0 0 1-.99-11.407v-15.3c0-5.55.6-9.886 1.8-13.006a14.957 14.957 0 0 1 6.481-7.516c3.12-1.89 7.11-2.835 11.971-2.835a27.374 27.374 0 0 1 10.507 1.821 16.483 16.483 0 0 1 10.039 10.78c.688 3.1.982 6.276.873 9.45zm-18.182-4.5c0-3.06-.167-4.987-.5-5.782a2.043 2.043 0 0 0-2.115-1.194 2.132 2.132 0 0 0-2.16 1.194c-.36.795-.54 2.723-.54 5.782V59.1a17.485 17.485 0 0 0 .54 5.515 2.459 2.459 0 0 0 4.253.111c.453-1.64.628-3.344.518-5.041l.004-27.541zM255.716 15.671v59.721h-18.5l.315-4.962a12.638 12.638 0 0 1-4.659 4.533 13.086 13.086 0 0 1-6.367 1.509 14.34 14.34 0 0 1-6.8-1.44 9.343 9.343 0 0 1-3.981-3.825 13.932 13.932 0 0 1-1.6-4.971c-.21-1.725-.315-5.154-.315-10.285v-40.28H232v40.64c0 4.65.142 7.411.426 8.281.284.87 1.057 1.305 2.319 1.305 1.35 0 2.153-.45 2.409-1.35.256-.9.383-3.795.381-8.686v-40.19h18.181zM280.738 15.671l-.315 5.5a13.65 13.65 0 0 1 4.836-4.938 13 13 0 0 1 6.595-1.644A12.5 12.5 0 0 1 299.5 16.8a9.814 9.814 0 0 1 3.825 5.557c.697 3.685.983 7.437.855 11.185v41.85H286V34.033a38.47 38.47 0 0 0-.405-7.516c-.27-.9-1.02-1.35-2.25-1.35a2.247 2.247 0 0 0-2.43 1.554c-.333 1.032-.5 3.799-.5 8.3v40.371h-18.174V15.671h18.497zM350.63 38.219h-17.147v-6.886a13.488 13.488 0 0 0-.585-4.881 2.158 2.158 0 0 0-2.16-1.284 2.115 2.115 0 0 0-2.115 1.125 14.417 14.417 0 0 0-.54 5.041v28.172a10.972 10.972 0 0 0 .81 4.791 2.563 2.563 0 0 0 2.385 1.6 2.461 2.461 0 0 0 2.5-1.665c.548-2.053.767-4.179.651-6.3V50.82h16.2a93.08 93.08 0 0 1-.519 10.735 17.188 17.188 0 0 1-3.012 7.333 16.084 16.084 0 0 1-6.64 5.671 23.867 23.867 0 0 1-10.126 1.914c-5.133 0-9.2-.878-12.2-2.634a14.478 14.478 0 0 1-6.37-7.381c-1.241-3.163-1.862-7.655-1.862-13.478V36.014c0-5.07.51-8.896 1.53-11.476s3.195-4.882 6.526-6.907a22.941 22.941 0 0 1 12.151-3.039c4.25-.125 8.452.918 12.151 3.015a14.8 14.8 0 0 1 6.706 7.606c1.11 3.058 1.666 7.393 1.666 13.006zM374.752 2.53v9.5h-18.721v-9.5h18.721zm0 13.141v59.721h-18.721V15.671h18.721zM400 2.53v72.862h-18.722V2.53z"/>
    </g>
</svg>
