<?xml version="1.0" encoding="iso-8859-1"?>
<!-- Generator: Adobe Illustrator 16.0.0, SVG Export Plug-In . SVG Version: 6.00 Build 0)  -->
<!DOCTYPE svg PUBLIC "-//W3C//DTD SVG 1.1//EN" "http://www.w3.org/Graphics/SVG/1.1/DTD/svg11.dtd">
<svg version="1.1" id="Capa_1" xmlns="http://www.w3.org/2000/svg" xmlns:xlink="http://www.w3.org/1999/xlink" x="0px" y="0px"
	 width="578.793px" height="578.793px" viewBox="0 0 578.793 578.793" style="enable-background:new 0 0 578.793 578.793;"
	 xml:space="preserve">
<g>
	<g>
		<path d="M526.959,179.403l-123.426-22.628L343.188,45.458c-12.121-22.356-31.613-35.178-53.48-35.178
			c-21.836,0-41.316,12.794-53.449,35.092l-60.53,111.219L52.27,179.015c-25.37,4.605-43.581,19.271-49.958,40.239
			s0.582,43.29,19.094,61.246l90.139,87.415L90.556,495.981c-3.363,20.527,1.16,39.336,12.736,52.963
			c10.576,12.451,25.793,19.312,42.846,19.314h0.003c9.388,0,19.058-2.102,28.73-6.238l114.472-48.992l114.383,49.176
			c9.743,4.186,19.428,6.309,28.788,6.309c17.137,0,32.268-6.988,42.61-19.678c11.365-13.947,15.267-33.059,10.989-53.809
			L459.96,368.212l96.005-87.397c19.256-17.528,26.836-39.688,20.799-60.802C570.723,198.899,552.567,184.098,526.959,179.403z
			 M376.232,340.981l28.544,138.4l-115.369-49.598l-118.813,50.85l22.907-139.801l-95.286-92.414l127.201-23.103l64.257-118.055
			l64.059,118.162l124.392,22.803L376.232,340.981z"/>
	</g>
</g>
<g>
</g>
<g>
</g>
<g>
</g>
<g>
</g>
<g>
</g>
<g>
</g>
<g>
</g>
<g>
</g>
<g>
</g>
<g>
</g>
<g>
</g>
<g>
</g>
<g>
</g>
<g>
</g>
<g>
</g>
</svg>
