<svg xmlns="http://www.w3.org/2000/svg" width="155" height="18" viewBox="0 0 155 18">
    <g fill="none" fill-rule="nonzero">
        <path fill="#231F20" d="M100.499 17.605h-4.267V.195l13.723.012s2.512-.094 4.11 1.485c0 0 1.631 1.363 1.631 4.691v11.218h-4.255V6.093s.053-1.173-.347-1.586c0 0-.354-.447-1.027-.447h-9.577l.009 13.545zm18.158-.003V.203h17.125v3.869l-12.877-.001v2.957h8.947v3.736h-8.947v2.968h12.962v3.87h-17.21zm-29.857 0V.203h4.248v17.399H88.8zm54.186-14.625v-.586.587zm-1.095 14.624V4.071h-4.01V.203h15.946V4.07h-7.689v13.53h-4.247zM75.858 2.977v-.586.586zm-1.096 14.624V4.071h-4.01V.202H86.7v3.87H79.01v13.53h-4.248zM61.95 7.025c1.038-.008 1.659.001 1.909-.151 0 0 .436-.241.441-.759l.001-1.137c0-.52-.441-.76-.441-.76-.331-.18-.893-.145-2.225-.147h-8.276v2.954h8.78-.19.001zm2.289 10.576v-5.937a.873.873 0 0 0-.447-.758c-.2-.125-.803-.147-1.69-.147h.206-8.95V17.6H49.11V.203h13.26c2.29.007 3.872.343 4.96 1.4 1.07 1.09 1.213 2.517 1.218 4v1.24c.014 1.26-.649 2.41-1.439 3.08l.159.08c.322.156.498.377.498.377.602.768.594 1.428.593 2.24v4.981h-4.121zM0 .201V17.6h4.247v-6.836h12.87V7.026H4.246V4.07H19.21V.2H0zM152.367 14.521v.8h.744c.201 0 .396-.056.426-.354.043-.397-.243-.446-.426-.446h-.744zm-.298-.262h1.036c.36 0 .707.067.737.591.013.3-.079.409-.305.58.239.153.245.189.282.591.023.305-.02.354.11.555h-.354l-.049-.292c-.049-.275.085-.701-.396-.701h-.763v.993h-.298V14.26zm.78-.64a1.855 1.855 0 0 0-1.853 1.866 1.85 1.85 0 0 0 1.859 1.854 1.86 1.86 0 1 0-.006-3.72zm.006 3.962a2.1 2.1 0 0 1-2.104-2.102 2.101 2.101 0 0 1 2.103-2.104c1.16 0 2.104.945 2.104 2.104a2.107 2.107 0 0 1-2.103 2.102z"/>
        <path fill="#EE2E24" d="M43.276 17.767c1.38-.469 2.454-2.057 2.713-4.056v-.578h-7.075v4.634h4.362zm2.713-13.13v-.523C45.718 2.029 44.564.386 43.093 0h-4.179v4.636h7.075zm-24.904 8.497v.572c.256 2 1.33 3.593 2.714 4.061h4.34v-4.633h-7.054zM23.98 0c-1.469.386-2.626 2.03-2.895 4.117v.519h7.054V0H23.98zm22.01 6.566h-7.075v4.636h7.075V6.567zm-15.924 11.2h6.921v-4.634h-6.921v4.634zM36.987 0h-6.921v4.637h6.921V0zM21.085 11.203h7.053V6.567h-7.053v4.636z"/>
    </g>
</svg>
