<svg width="456" height="512" viewBox="0 0 456 512" fill="none" xmlns="http://www.w3.org/2000/svg">
<path d="M60.9577 0C60.9577 0 60.9577 48.316 60.9577 60.8671C40.6698 60.8671 20.3818 60.8669 0.0938196 60.8681C0.0915376 98.1156 0.0854566 512 0.0952039 512C113.074 512 226.053 512 339.032 512C339.032 491.711 339.032 471.422 339.032 451.133C359.323 451.133 379.615 451.133 399.907 451.133C399.907 300.755 399.499 150.378 399.499 0.0001266C286.652 0.0001266 173.805 0.000601959 60.9577 0ZM315.39 488.358H23.7348V84.5071H211.969C211.969 118.671 211.969 152.836 211.969 187L315.39 187.928V488.358ZM235.613 101.226L298.674 164.287C287.595 164.287 236.5 163.349 236.5 163.349C236.5 163.349 235.613 112.535 235.613 101.226ZM339.033 427.49V176.109C339.033 176.109 248.854 79.3322 229 61.5L84.5988 60.8681C84.5988 52.0996 84.5988 20.5 84.5988 20.5C84.5988 20.5 324.965 23.6431 376.263 23.6431C376.263 158.259 376.292 292.875 376.263 427.49C363.853 427.49 351.443 427.49 339.033 427.49Z" fill="black"/>
</svg>
