<svg xmlns="http://www.w3.org/2000/svg" width="11" height="14" viewBox="0 0 11 14">
    <path fill="#000" fill-rule="evenodd" d="M1.248 0C.559 0 0 .544 0 1.188v12.017c0 .55.324.795.655.795.197 0 .392-.084.586-.243l3.771-3.085a.733.733 0 0 1 .46-.151c.174 0 .342.055.459.15l3.784 3.086c.193.159.403.243.6.243a.64.64 0 0 0 .522-.261.895.895 0 0 0 .163-.534V1.188C11 .544 10.395 0 9.706 0H1.248zm1.417 2h5.64c.458 0 .862.311.862.68v6.866a.463.463 0 0 1-.11.305.454.454 0 0 1-.347.149.705.705 0 0 1-.4-.139L5.787 8.098a.545.545 0 0 0-.306-.086.544.544 0 0 0-.306.086L2.66 9.861a.678.678 0 0 1-.39.139c-.221 0-.437-.14-.437-.454V2.679c0-.368.373-.679.832-.679z"/>
</svg>
