<svg xmlns="http://www.w3.org/2000/svg" width="52" height="69" viewBox="0 0 52 69">
    <path fill="#88A6B0" fill-rule="nonzero" d="M26 32.47c-7.732 0-14-7.268-14-16.235C12 7.27 14.058 0 26 0s14 7.269 14 16.235c0 8.967-6.268 16.236-14 16.236zm25.97 26.803c.017.993.026 1.164.03 1.076l-.001 1.206S48.171 69 26.001 69C3.83 69 .002 61.555.002 61.555c0-.866-.001-1.362-.002-1.63.004.143.015.078.04-1.156.293-15.113 2.521-19.47 18.422-22.24 0 0 2.264 2.783 7.539 2.783 5.274 0 7.537-2.783 7.537-2.783 16.077 2.8 18.178 7.223 18.433 22.744z"/>
</svg>
