<svg xmlns="http://www.w3.org/2000/svg" width="16" height="16" viewBox="0 0 16 16">
    <g fill="#000" fill-rule="evenodd">
        <path d="M14.68 12.395v-1.4a.92.92 0 0 0-.913-.926h-5.27V8.615H7.462v1.454H2.22a.92.92 0 0 0-.912.926V12.4A1.831 1.831 0 0 0 0 14.164C0 15.178.81 16 1.807 16c.998 0 1.808-.822 1.808-1.836 0-.822-.536-1.52-1.268-1.752v-1.288h5.12v1.288c-.74.232-1.276.93-1.276 1.752C6.19 15.178 7 16 7.998 16c.998 0 1.807-.822 1.807-1.836 0-.835-.552-1.54-1.304-1.76v-1.28h5.14v1.288a1.834 1.834 0 0 0-1.256 1.748c0 1.013.81 1.836 1.808 1.836.997 0 1.807-.823 1.807-1.836 0-.843-.56-1.55-1.32-1.765z"/>
        <path d="M12 6.813a14.025 14.025 0 0 0-2.526-1.558.073.073 0 0 1-.044-.07v-.804c.128-.214.213-.44.244-.645.094-.006.216-.133.351-.585.17-.579.013-.696-.144-.696.016-.049.028-.1.038-.148C10.195.709 9.376.652 9.376.652s-.134-.25-.492-.44A1.725 1.725 0 0 0 7.871.007a1.497 1.497 0 0 0-.404.076c-.163.05-.31.13-.445.22-.163.099-.32.223-.458.361-.216.214-.41.489-.495.832-.07.256-.054.525.003.814.01.048.022.1.038.148-.154.003-.305.123-.138.696.131.452.257.579.35.585.035.205.117.43.245.645v.804c.003.028-.015.055-.04.067a13.98 13.98 0 0 0-2.518 1.552.813.813 0 0 0-.317.642v.747c0 .233.195.42.436.42h7.744a.427.427 0 0 0 .436-.42V7.45A.82.82 0 0 0 12 6.813z"/>
    </g>
</svg>
