<?xml version="1.0" encoding="UTF-8" standalone="no"?>
<!DOCTYPE svg PUBLIC "-//W3C//DTD SVG 1.1//EN"
"http://www.w3.org/Graphics/SVG/1.1/DTD/svg11.dtd">


<!-- Page 1 -->
<svg x="0" y="0" width="15" height="21" viewBox="0 0 15 21" version="1.1" xmlns="http://www.w3.org/2000/svg" xmlns:xlink="http://www.w3.org/1999/xlink"
style="display: block;margin-left: auto;margin-right: auto;">
<defs>
<clipPath id="c0_1"><path d="M7.6,18.3c-.9,0,-1.8,-.1,-2.6,-.4L14.7,7.7c.4,.9,.6,1.9,.6,3c0,4.2,-3.4,7.6,-7.7,7.6ZM.6,13.7C.2,12.8,0,11.8,0,10.7C0,6.5,3.4,3.1,7.6,3.1c1.3,0,2.5,.3,3.6,.8L.6,13.7Z" /></clipPath>
<clipPath id="c1_1"><path d="M7.6,7.6V0l4.6,3.8L7.6,7.6Z" /></clipPath>
<clipPath id="c2_1"><path d="M7.6,21.4L3.1,17.6L7.6,13.8v7.6Z" /></clipPath>

<style type="text/css"><![CDATA[

.g0_1{
fill: none;
stroke: #7A8EA5;
stroke-width: 3.0555556;
stroke-linecap: butt;
stroke-linejoin: miter;
}
.g1_1{
fill: #7A8EA5;
}

]]></style>

</defs>
<path d="M0,0
L0,21
L15,21
L15,0 Z " 
fill="#FFFFFF" stroke="none" />
<g clip-path="url(#c0_1)">
<path d="M11.2,3.9C10.1,3.4,8.9,3.1,7.6,3.1C3.4,3.1,0,6.5,0,10.7c0,1.1,.2,2.1,.6,3M5,17.9c.8,.3,1.7,.4,2.6,.4c4.3,0,7.7,-3.4,7.7,-7.6c0,-1.1,-.2,-2.1,-.6,-3" class="g0_1" />
</g>
<g clip-path="url(#c1_1)">
<path d="M0,15.3H19.9V-7.5H0V15.3Z" class="g1_1" />
</g>
<g clip-path="url(#c2_1)">
<path d="M-4.5,29H15.3V6.1H-4.5V29Z" class="g1_1" />
</g>

</svg>
