<svg xmlns="http://www.w3.org/2000/svg" width="117" height="40" viewBox="0 0 117 40">
    <g fill="none" fill-rule="evenodd">
        <path fill="#5E2261" fill-rule="nonzero" d="M51.7 8.1h3.7v22.8h-3.7zM72 30.9h-3.7V11.5H57.8V8.1h24.7v3.4H72zM84.9 8.1h3.7v22.8h-3.7zM114.1 30.9H93.3V8.1h3.6v19.4h17.2zM116.7 10.3c0 1.4-1.1 2.5-2.6 2.5-1.4 0-2.6-1.1-2.6-2.5s1.1-2.5 2.6-2.5 2.6 1.1 2.6 2.5zm-4.5 0c0 1.1.8 2 2 2 1.1 0 1.9-.9 1.9-2s-.8-2-1.9-2c-1.2 0-2 .9-2 2zm1.5 1.3h-.6V9.1c.2 0 .6-.1 1-.1.5 0 .7.1.9.2.2.1.3.3.3.5 0 .3-.2.5-.5.6.2.1.4.3.4.6.1.4.1.5.2.6h-.6c-.1-.1-.1-.3-.2-.6 0-.3-.2-.4-.5-.4h-.3v1.1h-.1zm0-1.4h.3c.3 0 .6-.1.6-.4 0-.2-.2-.4-.5-.4h-.3v.8h-.1z"/>
        <path fill="#4C2532" d="M21.2 33.5c5.7 2.2 11.8 0 15.3-4.3-2.9 2.9-7.5 4.5-11.8 2.8-6.4-2.6-8.6-7.7-6.8-13.4 1.8-5.7 7.4-9.1 13.4-7.2 4.4 1.4 7.4 5 8 9.1-.4-5.4-4.2-10.5-10-12.3-7.4-2.4-15.3 1.4-17.6 8.4-2.2 6.9 2.2 14.1 9.5 16.9"/>
        <path fill="#5E2261" d="M34.2 19.5c.4 6.4-4.4 11.9-10.8 12.4-4.6.3-9-2.4-11.1-6.2 2.4 5.3 8 9.1 14.2 8.7 7.8-.5 13.8-7.4 13.3-15.2-.5-7.9-6-6.1-5.6.3"/>
        <path fill="#4C2532" d="M20.5 39c8.1-.4 14.8-5.8 17.2-13.1-2.2 5.3-7.4 9.1-13.5 9.4-8.4.4-15.6-6.2-16-14.6-.4-8.4 6.2-15.6 14.6-16 6.1-.3 11.6 3.1 14.2 8.2C34.2 5.8 27 1 18.9 1.3 8.5 1.8.4 10.6.9 21c.4 10.4 9.3 18.5 19.6 18"/>
        <path fill="#9C7AA0" d="M41.3 17.8c-.2-3.5-1.3-5.9-2.5-8.1-.6.8-1.1 1.5-1.6 2.1-2.8-3.9-7.5-6.3-12.6-6-6.1.4-11.1 4.7-12.7 10.2 1.6-4 5.4-7 10-7.4 13.7 0 12.5 12.8 9 18.4-3 4.9-8 8.6-13.5 8.8-6.6.3-12.4-3.4-15.4-9 3 7.8 10.9 13.1 19.7 12.7 11.3-.4 20.1-10.2 19.6-21.7"/>
        <path fill="#5B245A" d="M42.1 25.3c.2-1.4.4-2.8.5-4.3C42.6 9.4 33.2.1 21.7.1c-10 0-18.5 7-20.4 16.5C3.7 9.2 10 4 17.6 4c9.5 0 17.3 8.5 17.3 19 0 2-1.2 17.3 12.9 15.9-1.1-.4-7.8-.3-5.7-13.6"/>
    </g>
</svg>
