<svg xmlns="http://www.w3.org/2000/svg" xmlns:xlink="http://www.w3.org/1999/xlink" width="333" height="98" viewBox="0 0 333 98">
    <defs>
        <path id="a" d="M2.6 1.833h322.529v88.134H2.599z"/>
        <path id="c" d="M2.627 0h319.058v87.193H2.627z"/>
        <path id="e" d="M2.6 1.833h322.529v88.134H2.599z"/>
    </defs>
    <g fill="none" fill-rule="evenodd">
        <path fill="#61849C" fill-rule="nonzero" d="M160.949 74.433h1.96l10.1 13.926V74.433h1.732v16.889h-1.644l-10.416-14.337v14.337h-1.732zM179.048 74.433h11.168v1.71h-9.369v5.582h9.142v1.688h-9.142v6.268h9.46v1.64h-11.26zM199.265 76.143h-6.337v-1.71h14.475v1.71h-6.336v15.18h-1.802zM209.59 74.433h1.846l4.443 13.97 4.537-13.97h1.55l4.512 13.97 4.468-13.97h1.733l-5.426 17.003h-1.547l-4.56-14.062-4.537 14.062h-1.571z"/>
        <g transform="matrix(1 0 0 -1 1.838 94.373)">
            <mask id="b" fill="#fff">
                <use xlink:href="#a"/>
            </mask>
            <g mask="url(#b)">
                <path fill="#61849C" fill-rule="nonzero" d="M247.662 11.484c0 4.56-2.12 7.02-6.726 7.02-4.582 0-6.678-2.46-6.678-7.02 0-4.582 2.096-7.045 6.678-7.045 4.607 0 6.726 2.463 6.726 7.045m-15.204.022c0 6.018 3.077 8.706 8.478 8.706 5.426 0 8.525-2.688 8.525-8.706 0-6.04-3.099-8.73-8.525-8.73-5.4 0-8.478 2.69-8.478 8.73M260.448 11.575c2.394 0 3.874.73 3.874 3.396 0 2.621-1.436 3.304-3.94 3.304h-5.496v-6.7h5.562zm-.5-1.641h-5.062V3.05h-1.755v16.889h7.295c3.921 0 5.698-1.572 5.698-4.924 0-2.915-1.39-4.626-4.332-5.012l4.08-6.953h-1.914l-4.01 6.884zM275.081 12.008l-3.373-3.69V3.05h-1.755v16.888h1.755v-9.322l8.547 9.322h2.074l-6.062-6.63 6.884-10.258h-2.03zM284.655 4.76l.91 1.366c2.028-1.275 4.013-1.708 6.04-1.708 3.488 0 5.038.98 5.038 3.304 0 2.394-2.005 2.736-5.038 3.283-3.646.638-6.109 1.255-6.109 4.67 0 3.263 2.097 4.538 6.11 4.538 2.646 0 4.537-.592 5.88-1.505l-.957-1.458c-1.208.797-3.008 1.321-4.924 1.321-3.03 0-4.329-.844-4.329-2.849 0-2.143 1.755-2.551 4.765-3.099 3.69-.66 6.356-1.207 6.356-4.831 0-3.352-2.14-4.968-6.744-4.968-2.552 0-4.857.522-6.998 1.935"/>
                <path fill="#231F20" fill-rule="nonzero" d="M316.056 89.745c-23.744 0-24.752-10.638-24.752-25.647V27.252h5.598v36.846c0 11.313-.447 20.385 19.154 20.385 2.1 0 3.963-.111 5.64-.308v5.334c-1.73.153-3.596.236-5.64.236M39.118 51.22v37.295h5.712V51.108c0-10.752-.11-19.824 19.6-19.824 19.598 0 19.151 9.072 19.151 20.385v36.846h5.601V51.669c0-15.009-1.01-25.65-24.753-25.65-23.856 0-25.31 10.641-25.31 25.2M148.718 64.548V27.252h-5.711V64.66c0 10.752.11 19.824-19.6 19.824-19.601 0-19.151-9.072-19.151-20.385V27.252h-5.598v36.846c0 15.009 1.008 25.647 24.75 25.647 23.855 0 25.31-10.638 25.31-25.197M159.113 88.414h5.481V27.266h-5.481zM203.57 53.998c9.89 0 14.805 4.82 14.805 14.559 0 9.733-5.303 14.356-15.05 14.356h-22.984V53.998h23.228zM174.86 88.4h28.626c14.195 0 20.632-7.056 20.632-19.599 0-12.626-6.353-20.301-20.71-20.301h-23.067V27.25h-5.481V88.4z"/>
            </g>
        </g>
        <g transform="matrix(1 0 0 -1 1.838 91.596)">
            <mask id="d" fill="#fff">
                <use xlink:href="#c"/>
            </mask>
            <g mask="url(#d)">
                <path fill="#231F20" fill-rule="nonzero" d="M236.101 59.42h41.661c-.558 12.206-1.344 22.622-19.152 22.622-17.133 0-21.837-9.297-22.509-22.623m-5.6-4.146c0 18.03 5.153 31.92 28.226 31.92 23.853 0 24.636-16.014 24.525-32.925H235.99c.111-14.897 3.804-25.985 23.181-25.985 10.305 0 15.009 2.801 20.049 6.495l3.132-4.143c-5.598-4.143-12.204-7.392-23.181-7.392-24.189 0-28.67 14-28.67 32.03M4.73 11.206c23.742 0 24.753 10.639 24.753 25.647v48.884h-5.601V36.853c0-11.31.447-20.384-19.152-20.384-.741 0-1.444.019-2.13.047v-5.282a87.71 87.71 0 0 1 2.13-.028"/>
            </g>
        </g>
        <g transform="matrix(1 0 0 -1 1.838 94.373)">
            <mask id="f" fill="#fff">
                <use xlink:href="#e"/>
            </mask>
            <g mask="url(#f)">
                <path fill="#231F20" fill-rule="nonzero" d="M309.162 34.219a3.371 3.371 0 0 1-3.368-3.366 3.371 3.371 0 0 1 3.368-3.365 3.37 3.37 0 0 1 3.363 3.365 3.37 3.37 0 0 1-3.363 3.366m0-7.231a3.87 3.87 0 0 0-3.868 3.865 3.872 3.872 0 0 0 3.868 3.866 3.866 3.866 0 0 0 0-7.73"/>
                <path fill="#231F20" fill-rule="nonzero" d="M309.549 30.893c.605 0 .955.175.955.825 0 .641-.339.788-.974.788h-1.358v-1.613h1.377zm-.139-.555h-1.238V28.63h-.592v4.44h1.977c1.125 0 1.558-.46 1.558-1.338 0-.717-.305-1.211-1.072-1.353l1.003-1.749h-.642l-.994 1.708z"/>
            </g>
        </g>
    </g>
</svg>
