<svg xmlns="http://www.w3.org/2000/svg" width="136" height="65" viewBox="0 0 136 65">
    <g fill="#24514A" fill-rule="nonzero">
        <path d="M19.193 63.608C9.775 56.52 1 47.82 1 32.533 1 18.275 13.752 5.661 21.265 1l2.967 1.744c-20.064 17.691-20.2 43.449-1.544 58.88l-3.495 1.984z"/>
        <path d="M21.705 53.78V12.457h5.498V53.78zM57.605 41.6c0 1.563-.264 3.108-.794 4.635-.529 1.527-1.27 2.82-2.225 3.88a11.38 11.38 0 0 1-3.656 2.694c-1.391.647-3.068.97-5.028.97-2.104 0-3.996-.269-5.675-.808-1.68-.539-3.388-1.338-5.126-2.398V43.89h.274c1.477 1.689 3.182 2.991 5.117 3.908 1.934.916 3.754 1.267 5.45 1.374 7.812.49 8.35-9.202 3.783-11.707-.91-.498-2.56-1.646-3.77-2.42-2.998-1.919-6.94-3.382-8.806-6.057-1.264-1.813-1.872-2.379-1.872-5.307 0-3.36 1.032-6.112 3.097-8.259 2.065-2.147 4.686-3.22 7.861-3.22 2.052 0 3.934.27 5.646.808 1.712.54 3.228 1.204 4.548 1.994v6.306h-.274c-1.111-1.294-2.572-2.367-4.382-3.22-1.81-.854-3.113-.856-5.006-.934-7.34-.302-8.167 6.864-3.473 10.483 4.092 3.156 8.239 3.865 11.95 7.497 1.402 1.37 2.361 3.59 2.361 6.464zM98.516 50.438c-15.977 7.39-36.265 2.3-36.265-17.414 0-19.522 21.398-24.491 36.265-17.606v6.091h-.44c-10.144-8.21-30.854-4.907-30.854 11.515 0 17.136 21.171 19.426 30.883 11.373h.411v6.04z"/>
        <path d="M97.79 63.608c9.419-7.088 18.193-15.788 18.193-31.075 0-14.258-12.752-26.872-20.265-31.533L92.75 2.744c20.064 17.691 20.2 43.449 1.544 58.88l3.495 1.984zM118.25 24.767v-.375l4.31-6.601c.901-1.384 1.352-2.558 1.352-3.522 0-1.27-.717-1.906-2.15-1.906-.507 0-.983.133-1.428.4-.444.265-.767.602-.967 1.009l-1.211-.996c.213-.613.63-1.102 1.253-1.465.623-.363 1.376-.544 2.259-.544 1.32 0 2.353.305 3.098.915.745.61 1.118 1.473 1.118 2.587 0 1.033-.495 2.335-1.484 3.907l-3.09 4.901h5.39v1.69h-8.45zM127.84 15.562c0-1.077.383-1.996 1.147-2.759.765-.762 1.685-1.143 2.762-1.143a3.76 3.76 0 0 1 2.76 1.143 3.76 3.76 0 0 1 1.143 2.76c0 1.076-.381 1.997-1.144 2.761-.762.765-1.682 1.147-2.759 1.147s-1.997-.382-2.762-1.147c-.764-.764-1.146-1.685-1.146-2.762zm7.175 0c0-.903-.318-1.673-.955-2.31a3.147 3.147 0 0 0-2.31-.955c-.904 0-1.675.318-2.314.955a3.143 3.143 0 0 0-.958 2.31c0 .904.32 1.675.958 2.314.639.638 1.41.958 2.313.958.904 0 1.674-.32 2.31-.958.638-.64.956-1.41.956-2.314zm-2.05 2.357l-1.221-2.067h-.695v2.067h-.69v-4.812h1.234c1.158 0 1.737.444 1.737 1.332 0 .618-.31 1.054-.932 1.309l1.314 2.17h-.747zm-1.916-4.221v1.598c.058.008.208.012.451.012.448 0 .75-.057.904-.171.154-.114.231-.331.231-.652 0-.529-.347-.793-1.042-.793h-.272l-.272.006z"/>
    </g>
</svg>
