<svg xmlns="http://www.w3.org/2000/svg" width="311" height="101" viewBox="0 0 311 101">
    <g fill="#3D87BB" fill-rule="evenodd">
        <path d="M1.251 17.941l70.743.226v20.93c.23 1.363-1.549 1.127-1.817-.227-.685-3.414-6.592-11.601-7.734-12.287H32.871V52.06H57.66c1.824-.682 4.722-5.672 6.605-10.692.678-1.818 2.069-.681 2.043-.222-.453 8.185-.342 23.185-.228 29.342.047 2.287-1.137 2.957-1.815.908-.68-2.045-4.096-9.094-6.373-10.918H32.871v29.119h32.072c1.818-1.363 6.515-11.645 7.051-14.332.23-1.139 2.05-1.139 2.05-.231v24.114l-50.275-.68c-10.23 0-12.736 0-22.518.91-1.603.149-1.564-2.209-.459-2.726C11.939 91.413 13.31 94.37 13.31 78.45V34.999c0-11.826-3.396-11.361-12.518-14.785-.953-.355-.449-2.047.459-2.273M89.283 17.484l32.986.683 25.248 51.864 26.164-51.18h22.293c1.817 0 8.875-.684 10.004-.91 1.141-.229 1.371 2.049.457 2.502-.91.455-11.828 5.005-12.961 6.597l6.59 63.241c.91 2.042 12.027 6.742 13.875 7.05 1.367.229.949 1.866.23 1.817-7.05-.455-38.863-.455-45.722 0-.684.045-3.559-1.071-.453-2.047 3.636-1.135 10.918-3.639 12.507-6.369l-4.546-55.049-31.395 63.465h-5.228l-28.666-62.102-5.002 53.235c2.044 4.089 11.603 5.914 12.738 6.371 1.135.449 1.135 2.134.226 2.041-6.828-.68-32.306-.225-35.029.232-1.365.223-3.84-1.504-.681-2.508 8.906-2.818 11.828-.222 13.875-20.924l5.458-45.498c.68-7.504-8.857-8.414-13.191-10.005-.645-.241-1.369-2.506.223-2.506"/>
        <path d="M279.525 38.413l.68-20.929c-9.332-1.135-32.352-4.92-51.411 9.099-19.773 14.543-25.171 51.731.457 68.471 17.059 11.148 48.223 3.414 50.497 2.277.91-.453 2.05-1.136 2.05-2.049 0-.912.227-19.564.227-20.472 0-.908-1.367-.684-2.051.224-.676.913-4.172 14.245-7.508 15.926-7.336 3.705-24.777 6.053-33.89-12.51-6-12.224-6.176-28.783 2.5-43.904 9.019-15.715 25.933-11.211 27.984-10.006 3.863 2.272 6.234 7.313 7.961 13.649.68 2.498 2.277 2.043 2.504.224M285.892 6.794c9.551-8.871 17.973-5.687 20.922-2.73 2.961 2.955 4.906 9.431-2.039 16.379-3.418 3.412-10.469 8.871-10.469 8.871h10.918c1.141-.227 3.137-4.131 3.871-5.233.457-.679.906-.453.906.459v11.598c-3.187-.229-22.058-.229-25.019-.229v-3.865c5.004-3.867 9.781-9.326 13.422-13.877 3.637-4.551 3.047-16.679-9.781-9.552-2.051 1.138-3.418 0-2.731-1.821M292.793 87.413h.823c.926 0 1.717-.338 1.717-1.212 0-.622-.451-1.242-1.717-1.242-.37 0-.62.028-.823.056v2.398zm0 3.92h-1.125v-7.081c.59-.084 1.156-.169 2.001-.169 1.072 0 1.778.226 2.201.537.421.311.648.79.648 1.466 0 .931-.619 1.497-1.381 1.72v.058c.62.112 1.044.676 1.182 1.72.17 1.1.341 1.524.454 1.749h-1.186c-.17-.225-.339-.876-.478-1.806-.17-.903-.623-1.239-1.523-1.239h-.793v3.045zm1.187-9.054c-2.791 0-5.077 2.397-5.077 5.359 0 3.017 2.286 5.388 5.106 5.388 2.819.027 5.074-2.371 5.074-5.359 0-2.991-2.255-5.388-5.074-5.388h-.029zm.029-.986c3.47 0 6.233 2.82 6.233 6.345 0 3.583-2.763 6.373-6.262 6.373-3.47 0-6.29-2.79-6.29-6.373 0-3.525 2.82-6.345 6.29-6.345h.029z"/>
    </g>
</svg>
