<svg xmlns="http://www.w3.org/2000/svg" width="131" height="30" viewBox="0 0 131 30">
    <g fill="#EE2722" fill-rule="nonzero">
        <path d="M32.254 10.528c-3.088 0-5.51 2.041-5.51 4.673 0 2.624 2.422 4.647 5.51 4.647 3.087 0 5.538-2.023 5.538-4.647 0-2.632-2.45-4.673-5.538-4.673m0 12.456c-4.849 0-8.674-3.391-8.674-7.783 0-4.381 3.825-7.82 8.674-7.82 4.87 0 8.677 3.439 8.677 7.82 0 4.392-3.807 7.783-8.677 7.783M63.28 22.984c-1.754 0-3.157-1.433-3.157-3.19v-6.487c0-1.551-1.345-2.779-3.03-2.779-1.645 0-2.975 1.228-2.975 2.78v9.676c-1.743 0-3.164-1.393-3.164-3.136v-6.54c0-1.552-1.337-2.78-3.015-2.78-1.645 0-2.997 1.228-2.997 2.78v6.5c0 1.743-1.403 3.176-3.156 3.176v-9.677c0-3.272 2.758-5.925 6.153-5.925 1.84 0 3.478.752 4.592 1.969 1.11-1.217 2.758-1.97 4.562-1.97 3.42 0 6.186 2.654 6.186 5.926v9.677zM73.543 22.956c-.828 0-1.624-.068-2.347-.227-1.637-.453-2.592-2.16-2.172-3.783.072-.206.126-.404.198-.566l.037-.036c.882.969 2.324 1.462 4.284 1.462 2.874 0 5.155-2.02 5.155-4.572 0-2.664-2.281-4.748-5.155-4.748-2.737 0-5.463 1.504-5.463 4.813v10.177c0 1.71-1.45 3.074-3.17 3.074V15.3c0-4.565 3.625-7.953 8.633-7.953 2.19 0 4.251.828 5.839 2.268a7.618 7.618 0 0 1 2.458 5.62c0 4.33-3.64 7.722-8.297 7.722M96.04 4.4h-6.76v18.584h-.138c-1.674 0-3.012-1.433-3.012-3.136V4.401h-6.76c-1.707 0-3.077-1.408-3.077-3.114H99.16A3.109 3.109 0 0 1 96.04 4.4M116.047 4.548l-4.476 9.8h8.46L115.51 4.5l.536.047zm7.003 16.474l-1.67-3.586h-11.223l-1.641 3.687c-.785 1.472-2.864 1.918-4.447 1.918l9.129-19.944c.528-1.137 1.446-1.81 2.505-1.81 1.045 0 2 .673 2.52 1.81l9.024 19.696c-1.7.162-3.547-.342-4.197-1.771zM20.038 7.151a9.64 9.64 0 0 0-6.967-2.984c-4.888 0-8.872 3.539-8.872 7.905 0 4.356 3.984 7.917 8.872 7.917 2.332 0 4.537-.89 6.207-2.297 1.168-.94 2.875-.886 3.985.061-.85 1.318-2 2.452-3.42 3.345-1.993 1.274-4.332 1.926-6.772 1.926-6.606 0-11.956-4.925-11.956-10.952 0-6.055 5.35-10.987 11.956-10.987 4.703 0 8.977 2.567 10.864 6.495-1.197.784-2.881.684-3.897-.429M129.062 20.442a.572.572 0 0 1-.148.076s.098.108.412.493l-.054.036a.327.327 0 0 1-.452-.022l-.376-.457h-.405v-.126c.03-.14.149-.273.308-.273h.206a.702.702 0 0 0 .31-.065c.051-.018.058-.065.058-.133 0-.044 0-.17-.368-.17h-.55v1.023c0 .173-.144.302-.325.302h-.069v-1.443c0-.155.148-.263.304-.281h.64c.705 0 .773.4.773.569a.524.524 0 0 1-.264.471m-.61-1.274c-.72 0-1.32.507-1.32 1.14 0 .63.6 1.142 1.32 1.142.723 0 1.33-.511 1.33-1.141 0-.634-.607-1.141-1.33-1.141m0 2.624c-.926 0-1.664-.666-1.664-1.483 0-.814.738-1.498 1.663-1.498.912 0 1.65.684 1.65 1.498 0 .817-.738 1.483-1.65 1.483M100.155 1.294V19.95c0 1.67 1.46 3.034 3.153 3.034V4.347c0-1.67-1.443-3.053-3.153-3.053"/>
    </g>
</svg>
