<svg xmlns="http://www.w3.org/2000/svg" xmlns:xlink="http://www.w3.org/1999/xlink" width="397" height="146" viewBox="0 0 397 146">
    <defs>
        <path id="a" d="M86.84.04H.08v102.48h86.76V.04z"/>
        <path id="c" d="M5.88.28H.12v5.04h11.52V.28H5.88z"/>
        <path id="e" d="M.12 16V.96h22.44V16H.12z"/>
        <path id="g" d="M4.26.28H.12v17.76H8.4V.28z"/>
        <path id="i" d="M15.84.76H.12v34.56h31.44V.76H15.84z"/>
        <path id="k" d="M13.14.6H.12v16.92h26.04V.6H13.14z"/>
        <path id="m" d="M51.78.16H.12v101.76h103.32V.16z"/>
    </defs>
    <g fill="none" fill-rule="evenodd">
        <path fill="#0077BD" d="M276.6 29.12l-.36-.84V.92h19.56M337.68 103.52h37.44V.92h-37.44zM209.16 36.32V.92h22.68M299.04 60.92v42.6H272.4"/>
        <g transform="translate(118 1)">
            <mask id="b" fill="#fff">
                <use xlink:href="#a"/>
            </mask>
            <path fill="#0077BD" d="M40.04 46.24v26.04h13.68c20.28 0 33.12-13.08 33.12-34.32 0-25.68-17.28-38.04-40.68-38.04H.08v102.6h35.04V28.24h8.16c4.8 0 8.64 4.08 8.64 9 0 5.04-3.84 9-8.64 9" mask="url(#b)"/>
        </g>
        <path fill="#0077BD" d="M239.52 60.8v42.72h-26.64"/>
        <g transform="translate(0 13)">
            <mask id="d" fill="#fff">
                <use xlink:href="#c"/>
            </mask>
            <path fill="#0077BD" d="M0 1.6C3 .88 8.16.4 11.64.28 6.24 1 0 5.32 0 5.32" mask="url(#d)"/>
        </g>
        <g transform="translate(0 13)">
            <mask id="f" fill="#fff">
                <use xlink:href="#e"/>
            </mask>
            <path fill="#0077BD" d="M0 9.04C6.48 4.36 13.92.52 22.56 1c-5.52 3.84-9.36 9.84-12.72 15A70.41 70.41 0 0 0 0 15.28" mask="url(#f)"/>
        </g>
        <path fill="#0077BD" d="M28.32 15.08c3.96 1.08 5.28 14.28 5.52 19.2-7.08-2.4-13.92-3.96-20.88-4.92C16.2 24.44 23.76 14 28.32 15.08M37.08 35.84c-.24-4.92-1.56-15.6-3.84-19.44 9.48 3 16.08 17.16 19.56 27l-.96-.48c-4.8-2.76-9.72-5.16-14.76-7.08M56.4 45.44c5.4 3.48 12.6 9.12 16.8 13.2C67.92 44 53.4 26.12 44.16 20.84 51 29 54.36 37.16 56.4 45.44M95.04 92.96C91.08 66.44 78 42.92 58.08 28.64c9.24 9.84 15.96 21.72 19.8 34.68 8.4 9.48 13.44 18.24 17.16 29.64"/>
        <g transform="translate(0 31)">
            <mask id="h" fill="#fff">
                <use xlink:href="#g"/>
            </mask>
            <path fill="#0077BD" d="M8.4.88C4.44 7.48 3 11.08 0 18.04V.28c1.92 0 4.92.12 8.4.6" mask="url(#h)"/>
        </g>
        <path fill="#0077BD" d="M1.44 52.64c3.12-6.96 6.48-13.8 10.32-20.4 7.44 1.44 15.36 3.48 22.32 6.12-.12 6.72-1.08 15.48-2.28 22.8-9.48-3.6-20.52-6.6-30.36-8.52M53.88 46.88c1.8 7.68 2.88 14.88 2.76 23.28-7.08-3.6-14.04-6.6-21.48-9.24 1.08-7.2 1.44-14.64 1.8-22.2 5.76 2.28 11.4 5.04 16.92 8.16M75 64.64c2.28 7.08 3.36 14.76 3.72 22.44-5.52-4.92-12.12-9.96-18.84-13.8 0-8.16-.96-15.96-2.28-23.4 6.24 4.32 12.24 9.36 17.4 14.76"/>
        <g transform="translate(0 55)">
            <mask id="j" fill="#fff">
                <use xlink:href="#i"/>
            </mask>
            <path fill="#0077BD" d="M0 2.32V28.6c9.12 1.8 19.32 4.44 26.88 6.72l1.44-6.72c1.32-6.48 2.52-13.32 3.24-19.8C21.84 5.32 9.96 2.32.6.76" mask="url(#j)"/>
        </g>
        <path fill="#0077BD" d="M34.56 64.76c6.6 2.52 16.2 6.36 22.2 10.2-.12 7.92-1.32 16.92-2.4 24.48-8.04-3.12-16.32-5.76-24.6-8.16 1.92-8.28 3.48-17.88 4.8-26.52M79.56 70.04c7.56 10.08 12.96 21.48 14.28 33.48h-1.8c-2.52-4.44-6.36-9.12-10.2-13.56.12-6.84-.84-13.68-2.28-19.92M78.96 91.4c0 4.32-.48 8.28-1.08 12.12H63.96l-6.48-2.76c1.2-7.8 2.16-15.72 2.28-23.88 6.36 3.84 13.32 8.76 19.2 14.52"/>
        <g transform="translate(0 86)">
            <mask id="l" fill="#fff">
                <use xlink:href="#k"/>
            </mask>
            <path fill="#0077BD" d="M26.16 7.32c-.72 3.6-1.56 6.6-2.52 10.2H0V.6c7.56 1.56 14.64 3.24 26.16 6.72" mask="url(#l)"/>
        </g>
        <path fill="#0077BD" d="M53.88 102.32c0 .36-.12.84-.12 1.2H27c.84-3.12 1.44-6 2.16-9.24 5.64 1.56 17.16 5.16 24.72 8.04M88.56 103.52h-7.44c.36-2.52.72-6 .72-9.12 2.52 3 5.04 6.36 6.72 9.12"/>
        <g transform="translate(0 1)">
            <mask id="n" fill="#fff">
                <use xlink:href="#m"/>
            </mask>
            <path fill="#0077BD" d="M30.24 10.72c40.92 10.2 68.76 48.72 68.4 91.2h4.8V.16H0v9.48c6-.84 20.76-1.2 30.24 1.08" mask="url(#n)"/>
        </g>
        <path fill="#0077BD" d="M387.96 96.2h.96c1.08 0 2.04-.36 2.04-1.44 0-.72-.6-1.44-2.04-1.44-.36 0-.72.12-.96.12v2.76zm0 4.56h-1.2V92.6c.6-.12 1.32-.24 2.28-.24 1.2 0 2.04.24 2.52.6s.72.96.72 1.68c0 1.08-.72 1.8-1.56 2.04.72.12 1.2.84 1.32 2.04.24 1.2.36 1.68.48 2.04h-1.32c-.24-.36-.36-1.08-.6-2.16-.12-.96-.6-1.44-1.68-1.44h-.96v3.6zm1.44-10.44c-3.24 0-5.88 2.76-5.88 6.12 0 3.48 2.64 6.24 5.88 6.24 3.24 0 5.88-2.76 5.88-6.24 0-3.36-2.64-6.12-5.88-6.12zm0-1.2c3.96 0 7.2 3.24 7.2 7.32s-3.24 7.32-7.2 7.32c-4.08 0-7.32-3.24-7.32-7.32s3.24-7.32 7.32-7.32zM6.12 123.56c0 .96.12 1.56.36 1.92.24.24.72.48 1.32.48 1.08 0 1.92-.6 2.64-1.56.6-1.08.96-2.52.96-4.2 0-1.68-.36-3-1.08-3.84-.6-.96-1.56-1.32-2.76-1.32-.6 0-.96 0-1.08.24-.24.24-.36.6-.36 1.32v6.96zm-3.6-6.84c0-.48-.12-.96-.24-1.2-.24-.12-.48-.36-.96-.48-.36 0-.6-.12-.72-.12-.12-.12-.12-.24-.12-.48 0-.12 0-.24.24-.24.12-.12.36-.12.6-.12h6.36c2.4 0 4.32.48 5.52 1.56 1.2 1.08 1.8 2.64 1.8 4.8 0 1.92-.6 3.48-1.68 4.8-1.08 1.2-2.52 1.92-4.2 1.92-.6 0-1.08-.12-1.68-.24-.48-.12-.84-.24-.84-.24-.12 0-.24.12-.36.12 0 .12-.12.36-.12.72v6.96c0 .6.12.96.24 1.2 0 .24.24.36.48.48.12.12.24.12.36.12.72 0 1.08.24 1.08.6 0 .12-.12.24-.24.24s-.24.12-.48.12c-.12 0-.24 0-.48-.12H2.76c-.72 0-1.2.12-1.32.12-.48 0-.72-.12-.84-.12-.12-.12-.12-.12-.12-.36 0-.12.12-.24.48-.36.24-.12.36-.12.48-.24.48-.12.72-.24.84-.48.24-.24.24-.72.24-1.44v-17.52zM18.12 134.48V123.8c0-.36 0-.6-.12-.72s-.24-.24-.48-.36h-.48c-.24 0-.48-.12-.48-.24 0-.24.48-.48 1.2-.84.24-.24.48-.36.6-.36.48-.24.96-.48 1.44-.84.48-.24.72-.48.72-.48.12 0 .24.12.24.12s.12.12.12.24V123.08H21c.12 0 .36-.24.72-.6.24-.36.36-.48.48-.72.48-.6.96-1.08 1.44-1.32s.84-.48 1.32-.48c.72 0 1.2.24 1.56.72.48.48.6 1.08.6 1.8s-.12 1.2-.48 1.56c-.24.36-.6.6-1.08.6-.48 0-.84-.12-1.08-.24-.24-.24-.36-.6-.48-1.08v-.24c-.12-.48-.24-.72-.48-.72-.72 0-1.32.48-1.68 1.56-.48.96-.6 2.28-.6 3.96v7.08c0 .48 0 .84.12.96.12.24.36.36.6.36.12.12.24.12.48.12.24.12.48.24.48.48 0 .12-.12.12-.12.24-.12 0-.24.12-.48.12l-.24-.12h-4.56c-.12.12-.24.12-.36.12-.24 0-.48-.12-.6-.12 0-.12-.12-.24-.12-.36 0-.24.24-.36.84-.48h.12c.24-.12.48-.36.6-.6.12-.36.12-.72.12-1.2M35.16 136.76c.96 0 1.8-.72 2.4-2.16.6-1.44.96-3.36.96-5.64 0-2.4-.36-4.32-.96-5.76-.6-1.44-1.44-2.16-2.52-2.16-.96 0-1.8.72-2.4 2.04-.6 1.44-.84 3.24-.84 5.64 0 2.4.24 4.32.96 5.76.6 1.56 1.44 2.28 2.4 2.28zm-6.72-7.92c0-2.52.6-4.56 1.92-6.24 1.32-1.8 2.88-2.64 4.68-2.64 1.92 0 3.6.84 4.8 2.52 1.32 1.68 2.04 3.84 2.04 6.36 0 1.2-.24 2.4-.6 3.48s-.84 2.04-1.56 2.88c-.6.84-1.32 1.44-2.16 1.92-.84.36-1.56.6-2.4.6-.72 0-1.44-.12-2.28-.6-.72-.36-1.44-.84-2.16-1.56-.84-.84-1.32-1.8-1.8-2.88-.36-1.08-.48-2.4-.48-3.84zM45.72 115.76c0-.72.12-1.2.36-1.56.24-.48.6-.6 1.08-.6.48 0 .84.12 1.08.48.24.48.36.96.36 1.68 0 .6-.12 1.2-.36 1.56-.24.36-.6.6-1.08.6-.48 0-.84-.24-1.08-.6-.24-.36-.36-.96-.36-1.56zm2.76 20.28v.72c0 1.44-.12 2.52-.48 3.48-.24.84-.84 1.8-1.44 2.76-.48.6-1.08 1.2-1.68 1.68-.6.36-1.08.6-1.32.6s-.36 0-.36-.12c-.12 0-.12-.12-.12-.24s.12-.36.48-.72.6-.72.84-.96c.36-.6.6-1.2.84-1.92.12-.6.24-1.68.24-3.12v-14.16c0-.36-.12-.72-.12-.84-.12-.12-.24-.24-.48-.24-.12 0-.24-.12-.48-.12-.36 0-.48-.12-.48-.24 0-.24.24-.48.84-.6.36-.12.6-.24.84-.36l1.8-1.08c.48-.36.84-.48.84-.48.12 0 .12 0 .12.12.12 0 .12.12.12.24v15.6zM59.16 120.8c-.48 0-.96.12-1.32.36-.36.24-.72.6-1.08 1.2-.36.6-.6 1.2-.84 1.92s-.36 1.32-.36 1.8c0 .36.12.48.36.72.12.12.6.12 1.2.12 1.8 0 3-.12 3.48-.48.48-.24.84-.84.84-1.8 0-1.2-.24-2.16-.72-2.88-.36-.72-.96-.96-1.56-.96zm2.16 6.96h-4.68c-.48 0-.84.12-.96.24s-.24.48-.24.96c0 2.16.36 3.84 1.2 5.04.84 1.32 1.92 1.92 3.24 1.92.6 0 1.08-.12 1.56-.36s.96-.6 1.44-.96c.12-.24.24-.6.48-.96.24-.48.36-.6.6-.6.12 0 .24 0 .24.12.12 0 .12.12.12.36 0 .96-.6 1.92-1.68 2.88-1.2.96-2.52 1.44-3.96 1.44-1.8 0-3.36-.84-4.68-2.52-1.2-1.56-1.92-3.6-1.92-6 0-2.76.72-5.04 2.04-6.72 1.2-1.8 2.88-2.64 4.92-2.64 1.56 0 2.88.6 3.84 1.68.84 1.2 1.32 2.76 1.32 4.68 0 .72 0 1.08-.24 1.2-.12.12-.48.24-1.2.24h-1.44zM77.28 123.56v.36c0 .6-.12.96-.24 1.08 0 .12-.24.24-.48.24-.36 0-.6-.12-.84-.36-.36-.24-.48-.6-.72-1.08-.12-.12-.12-.36-.24-.48-.6-1.44-1.32-2.16-1.92-2.16-.84 0-1.56.6-2.16 1.92-.6 1.2-.96 2.76-.96 4.44 0 2.4.48 4.32 1.32 5.76.84 1.56 1.92 2.4 3.12 2.4.36 0 .72-.12 1.2-.36.36-.24.72-.48.96-.96.24-.12.36-.48.6-.84.12-.48.36-.72.6-.72.12 0 .24.12.24.24.12 0 .12.24.12.36 0 .24-.12.48-.24.84s-.24.72-.48 1.08c-.6.84-1.2 1.44-1.92 1.8-.6.36-1.44.6-2.28.6-1.8 0-3.36-.84-4.68-2.64-1.2-1.68-1.92-3.72-1.92-6.24s.72-4.56 2.04-6.24c1.44-1.68 3.12-2.52 5.16-2.52.72 0 1.44 0 2.04.24.72.12 1.08.36 1.32.48.12.12.24.24.24.48 0 .12.12.48.12.96M81.24 131.6v-9.72h-.72c-.36 0-.6 0-.72-.12-.12 0-.24-.12-.24-.36 0-.12.36-.48.96-.96.6-.6 1.08-1.08 1.44-1.68.36-.6.84-1.2 1.2-1.92s.6-1.08.72-1.08.24 0 .24.12c.12 0 .12.12.12.36v4.2h2.04c.36 0 .6 0 .72.12 0 .12.12.24.12.6 0 .24-.12.48-.12.48-.12.12-.24.24-.6.24h-2.16v9.72c0 1.68.12 2.76.24 3.24.12.36.36.48.72.48s.84-.24 1.2-.72.6-.84.72-.84.12.12.24.12l.12.12c0 .84-.36 1.56-1.08 2.4-.84.84-1.56 1.2-2.28 1.2-1.08 0-1.8-.48-2.16-1.32-.48-.84-.72-2.4-.72-4.68M98.88 116.6v-.12c0-.36 0-.72-.12-.84a.66.66 0 0 0-.6-.36c-.12 0-.36 0-.6-.12-.6-.12-.96-.24-.96-.48s.12-.36.24-.48c.24 0 .6-.12.96-.12h3.96c.48 0 .72.24.84.48v.12l4.2 12.84c.24.6.36.96.48 1.2s.24.36.36.36.36-.24.48-.72v-.12l4.08-12.84c.24-.6.36-.96.6-1.08.24-.12.48-.24.84-.24h4.08c.36 0 .6 0 .72.12 0 0 .12.12.12.24 0 .36-.36.48-.96.6h-.24c-.36.12-.6.24-.72.36s-.24.48-.24.84v.24l.48 17.76c0 .48 0 .96.12 1.2.12.36.24.48.48.72.12 0 .36.12.84.12.48.12.6.24.6.48 0 .12 0 .24-.12.36-.12 0-.36.12-.84.12-.24 0-.72-.12-1.2-.12H113.16c-.96 0-1.56.12-1.8.12H111c-.24 0-.36-.12-.48-.12 0 0-.12-.12-.12-.24 0-.24.36-.48.84-.72h.36c.6-.12 1.08-.24 1.2-.36.24-.24.36-.6.36-1.2v-.36l-.12-13.56c0-.6-.12-1.08-.12-1.32-.12-.36-.24-.48-.36-.48s-.12.12-.24.24l-.36.72-4.44 14.88-.12.24c-.36 1.32-.72 2.04-.96 2.04s-.6-.84-1.08-2.4c-.12-.12-.12-.12-.12-.24l-4.2-14.16-.36-.72c-.12-.12-.24-.24-.36-.24s-.12.12-.24.36c-.12.12-.12.48-.12.84l-.24 13.8v.12c0 .6.12 1.08.36 1.32.24.36.48.48.96.48h.24c.24 0 .36 0 .48.12s.24.24.24.36c0 .24-.12.36-.24.48-.12 0-.36.12-.72.12 0 0-.12 0-.36-.12h-3.36c-.36 0-.6.12-.72.12-.24 0-.36-.12-.48-.12 0-.12-.12-.24-.12-.36 0-.36.24-.6.84-.6h.36c.36-.12.72-.36.84-.6s.24-.72.24-1.44M128.52 129.44v-1.32c-.12-.24-.24-.36-.48-.36s-.84.48-1.68 1.44l-.36.36c-.6.6-.96 1.2-1.32 1.8-.24.6-.36 1.2-.36 1.8 0 .6.12 1.08.48 1.44.36.36.72.6 1.2.6.84 0 1.44-.48 1.92-1.32.48-.84.6-1.92.6-3.48v-.96zm-.12-4.8v-1.2c0-.96-.12-1.68-.24-2.04-.24-.36-.6-.6-1.2-.6s-1.2.24-1.68.72c-.48.6-.84 1.2-.96 1.92-.12.12-.12.36-.12.48-.36 1.68-1.08 2.64-2.16 2.64-.36 0-.6-.12-.72-.36-.12-.12-.24-.48-.24-.84 0-.6.12-1.08.48-1.56.24-.6.72-1.2 1.32-1.68.72-.72 1.44-1.2 2.28-1.56.96-.36 1.8-.6 2.76-.6 1.44 0 2.4.24 2.88.72.6.48.84 1.56.84 3v8.88c0 1.08 0 1.8.24 2.16.12.36.36.48.72.48.48 0 .72-.24.96-.6.24-.48.48-.6.6-.6 0 0 .12 0 .12.12.12.12.12.24.12.36 0 .72-.24 1.44-.96 2.16-.6.72-1.32 1.08-2.16 1.08-.36 0-.72-.12-1.08-.36-.36-.24-.72-.48-.84-.72l-.36-.72c-.24-.72-.48-.96-.6-.96-.24 0-.6.24-.96.72l-.6.6c-.48.48-.84.84-1.32 1.08-.48.24-.96.36-1.56.36-.84 0-1.44-.24-1.92-.84-.6-.6-.84-1.32-.84-2.16 0-1.08.36-2.16 1.08-3.12.72-.96 2.4-2.4 5.04-4.32.48-.36.72-.6.84-.96.24-.24.24-.84.24-1.68zM136.8 134.48V123.8c0-.36 0-.6-.12-.72 0-.12-.24-.24-.48-.36h-.36c-.36 0-.48-.12-.48-.24 0-.24.36-.48 1.08-.96.36-.12.48-.24.6-.24.48-.24.96-.48 1.44-.84.48-.24.72-.48.72-.48.12 0 .24.12.24.12.12 0 .12.12.12.24v2.04l.12.12c.12 0 .24-.12.6-.36l.6-.6c.72-.48 1.44-.96 1.92-1.2.6-.24 1.2-.36 1.8-.36 1.56 0 2.76.48 3.48 1.44.72.96.96 2.52.96 4.68v8.16c0 .84.12 1.32.24 1.56s.24.36.48.48c.12.12.36.12.6.12.48 0 .72.12.72.48 0 .12 0 .12-.24.24-.12 0-.36.12-.72.12h-.48c-.12 0-.48 0-.84-.12h-3c-.24.12-.48.12-.72.12s-.36-.12-.48-.12-.12-.12-.12-.24c0-.24.24-.36.6-.48.12 0 .24 0 .36-.12.24-.12.36-.36.48-.6s.12-.72.12-1.32v-8.88c0-1.44-.24-2.4-.6-3-.48-.6-1.2-.84-2.16-.84-1.2 0-2.04.36-2.52 1.08-.6.72-.84 1.8-.84 3.24v9c0 .48 0 .84.12.96.12.24.36.36.6.36.12.12.24.12.48.12.36.12.48.24.48.48 0 .12 0 .12-.12.24 0 0-.24.12-.36.12s-.12 0-.24-.12h-4.68c-.12.12-.24.12-.36.12-.24 0-.48-.12-.48-.12-.12-.12-.24-.24-.24-.36 0-.24.36-.36.84-.48h.12c.24-.12.48-.36.6-.6s.12-.72.12-1.2M160.44 129.44v-1.32c-.12-.24-.24-.36-.48-.36s-.84.48-1.68 1.44l-.36.36c-.6.6-.96 1.2-1.32 1.8-.24.6-.36 1.2-.36 1.8 0 .6.12 1.08.48 1.44.36.36.72.6 1.2.6.84 0 1.44-.48 1.92-1.32.48-.84.6-1.92.6-3.48v-.96zm-.12-4.8v-1.2c0-.96-.12-1.68-.24-2.04-.24-.36-.6-.6-1.2-.6s-1.2.24-1.68.72c-.48.6-.84 1.2-.96 1.92-.12.12-.12.36-.12.48-.36 1.68-1.08 2.64-2.16 2.64-.36 0-.6-.12-.72-.36-.12-.12-.24-.48-.24-.84 0-.6.12-1.08.48-1.56.24-.6.72-1.2 1.32-1.68.72-.72 1.44-1.2 2.28-1.56.96-.36 1.8-.6 2.76-.6 1.44 0 2.4.24 2.88.72.6.48.84 1.56.84 3v8.88c0 1.08 0 1.8.24 2.16.12.36.36.48.72.48.48 0 .72-.24.96-.6.24-.48.48-.6.48-.6.12 0 .24 0 .24.12.12.12.12.24.12.36 0 .72-.36 1.44-.96 2.16-.6.72-1.32 1.08-2.16 1.08-.36 0-.72-.12-1.08-.36-.36-.24-.72-.48-.84-.72l-.36-.72c-.24-.72-.48-.96-.6-.96-.24 0-.6.24-.96.72l-.6.6c-.48.48-.84.84-1.32 1.08-.48.24-.96.36-1.56.36-.84 0-1.44-.24-2.04-.84-.48-.6-.72-1.32-.72-2.16 0-1.08.36-2.16 1.08-3.12.72-.96 2.4-2.4 5.04-4.32.48-.36.72-.6.84-.96.24-.24.24-.84.24-1.68zM172.68 120.8c-.72 0-1.32.36-1.68 1.32-.48.84-.6 2.04-.6 3.6 0 1.68.12 3 .6 3.84.36.96 1.08 1.32 1.8 1.32s1.32-.36 1.68-1.2c.48-.84.6-2.04.6-3.6 0-1.68-.12-3-.6-3.96-.36-.84-1.08-1.32-1.8-1.32zm-3.72 19.68c0 1.2.36 2.16 1.2 2.88.84.72 1.8.96 3.24.96 1.08 0 2.16-.24 2.88-.96.84-.72 1.2-1.68 1.2-2.88 0-1.08-.48-1.92-1.44-2.52-.96-.48-2.4-.84-4.32-.84-.72 0-1.44.36-1.92 1.08-.6.6-.84 1.44-.84 2.28zm8.4-18c.24.48.48.96.6 1.44.12.6.24 1.08.24 1.68 0 1.68-.48 3-1.32 3.96-.96 1.08-2.28 1.8-3.96 2.16-.24 0-.6.12-.96.24-1.44.24-2.04.6-2.04 1.2 0 .72.96 1.08 3 1.2H174c2.04.24 3.48.72 4.32 1.44.96.72 1.44 1.92 1.44 3.36 0 1.8-.72 3.24-2.04 4.44-1.44 1.2-3.24 1.8-5.4 1.8-1.68 0-3.12-.36-4.2-1.08-.96-.84-1.56-1.8-1.56-3 0-.6.24-1.08.48-1.68.24-.48.84-1.08 1.68-1.68 0-.12.12-.12.24-.24.36-.24.6-.48.6-.6 0-.24-.36-.6-.84-1.08l-.48-.48c-.36-.36-.6-.72-.72-.96s-.24-.48-.24-.6c0-.24.12-.48.24-.6.12-.24.48-.48.84-.72l.72-.36c.84-.48 1.2-.84 1.2-.96s-.12-.36-.36-.48c0-.12-.12-.12-.12-.12-.96-.84-1.68-1.56-2.04-2.28-.36-.72-.6-1.68-.6-2.64 0-1.68.48-3.12 1.56-4.2a4.92 4.92 0 0 1 3.72-1.68c.84 0 1.8.24 3 .72.24.24.48.24.6.36.12 0 .36 0 .6.12h3v1.32h-2.28zM187.56 120.8c-.48 0-.84.12-1.32.36-.36.24-.72.6-.96 1.2-.36.6-.72 1.2-.96 1.92s-.36 1.32-.36 1.8c0 .36.12.48.36.72.24.12.6.12 1.2.12 1.92 0 3-.12 3.6-.48.48-.24.72-.84.72-1.8 0-1.2-.24-2.16-.6-2.88-.48-.72-.96-.96-1.68-.96zm2.16 6.96h-4.56c-.6 0-.96.12-1.08.24-.12.12-.12.48-.12.96 0 2.16.36 3.84 1.08 5.04.84 1.32 1.92 1.92 3.24 1.92.6 0 1.08-.12 1.68-.36.48-.24.96-.6 1.32-.96.12-.24.36-.6.48-.96.24-.48.48-.6.72-.6.12 0 .12 0 .24.12 0 0 .12.12.12.36 0 .96-.6 1.92-1.8 2.88-1.08.96-2.4 1.44-3.84 1.44-1.92 0-3.48-.84-4.68-2.52-1.32-1.56-1.92-3.6-1.92-6 0-2.76.6-5.04 1.92-6.72 1.32-1.8 2.88-2.64 4.92-2.64 1.68 0 2.88.6 3.84 1.68.96 1.2 1.44 2.76 1.44 4.68 0 .72-.12 1.08-.24 1.2-.12.12-.6.24-1.32.24h-1.44zM205.56 125.36c0-1.32-.12-2.28-.6-2.88-.48-.6-1.2-.84-2.16-.84-1.08 0-2.04.36-2.52 1.08-.6.72-.84 1.8-.84 3.24v9c0 .48 0 .84.12.96.12.24.36.36.6.36.12.12.36.12.6.12.24.12.36.24.48.48-.12.12-.12.12-.12.24-.12 0-.24.12-.48.12 0 0-.12 0-.24-.12h-4.68c-.12.12-.24.12-.24.12-.36 0-.48-.12-.6-.12-.12-.12-.12-.24-.12-.36 0-.24.24-.36.72-.48h.24c.24-.12.36-.36.48-.6s.24-.72.24-1.2V123.8c0-.36-.12-.6-.12-.72-.12-.12-.24-.24-.48-.36h-.48c-.24 0-.48-.12-.48-.24 0-.24.36-.48 1.2-.96.24-.12.48-.24.6-.24.48-.24.84-.48 1.32-.84.48-.24.72-.48.84-.48s.12.12.24.12v2.16c0 .12 0 .12.12.12 0 .12 0 .12.12.12 0 0 .24-.12.48-.36s.48-.48.72-.6c.72-.48 1.32-.96 1.92-1.2.6-.24 1.2-.36 1.8-.36.72 0 1.32.24 1.92.48.48.24 1.08.72 1.68 1.44.12 0 .12.12.24.24.12.24.36.36.36.36.12 0 .36-.24.84-.48.12-.24.36-.36.48-.48.6-.48 1.2-.84 1.8-1.08.6-.36 1.2-.48 1.8-.48 1.68 0 2.76.48 3.48 1.44.72.96 1.08 2.52 1.08 4.68v8.16c0 .84 0 1.32.12 1.56s.36.36.6.48c.12.12.24.12.6.12s.6.12.6.48c0 .12 0 .12-.12.24-.12 0-.48.12-.84.12h-.48c-.12 0-.36-.12-.84-.12h-1.92c-.24 0-.48.12-.48.12h-1.32c-.24 0-.36-.12-.48-.12s-.12-.12-.12-.24c0-.24.24-.36.6-.48.24 0 .36 0 .36-.12.24-.12.36-.36.48-.6s.12-.72.12-1.32v-8.88c0-1.44-.24-2.4-.6-3-.48-.6-1.2-.84-2.16-.84-1.08 0-2.04.36-2.52 1.08-.6.72-.84 1.8-.84 3.24v9c0 .48 0 .84.12.96.12.24.36.36.6.36.12.12.36.12.48.12.36.12.48.24.48.48 0 .12 0 .12-.12.24 0 0-.12.12-.36.12 0 0-.12 0-.24-.12h-4.68c-.12.12-.24.12-.24.12-.24 0-.48-.12-.6-.12-.12-.12-.12-.24-.12-.36 0-.24.24-.36.72-.48h.24c.24-.12.36-.36.48-.6s.12-.72.12-1.2M228.6 120.8c-.48 0-.96.12-1.32.36-.36.24-.72.6-1.08 1.2-.36.6-.6 1.2-.84 1.92s-.36 1.32-.36 1.8c0 .36.12.48.36.72.24.12.6.12 1.2.12 1.8 0 3-.12 3.48-.48.6-.24.84-.84.84-1.8 0-1.2-.24-2.16-.6-2.88-.48-.72-1.08-.96-1.68-.96zm2.16 6.96h-4.68c-.48 0-.84.12-.96.24s-.24.48-.24.96c0 2.16.48 3.84 1.2 5.04.84 1.32 1.92 1.92 3.24 1.92.6 0 1.08-.12 1.56-.36.6-.24.96-.6 1.44-.96.12-.24.36-.6.48-.96.24-.48.48-.6.6-.6s.24 0 .36.12v.36c0 .96-.48 1.92-1.68 2.88s-2.4 1.44-3.96 1.44c-1.8 0-3.36-.84-4.68-2.52-1.2-1.56-1.8-3.6-1.8-6 0-2.76.6-5.04 1.92-6.72 1.2-1.8 2.88-2.64 4.92-2.64 1.56 0 2.88.6 3.84 1.68.96 1.2 1.32 2.76 1.32 4.68 0 .72 0 1.08-.12 1.2-.24.12-.6.24-1.32.24h-1.44zM237.36 134.48V123.8c0-.36 0-.6-.12-.72 0-.12-.24-.24-.48-.36h-.36c-.36 0-.48-.12-.48-.24 0-.24.36-.48 1.2-.96.24-.12.36-.24.6-.24.36-.24.84-.48 1.32-.84.48-.24.72-.48.84-.48l.12.12c.12 0 .12.12.12.24v1.92c0 .12 0 .12.12.12 0 .12 0 .12.12.12 0 0 .24-.12.48-.36l.6-.6c.72-.48 1.44-.96 2.04-1.2.48-.24 1.08-.36 1.68-.36 1.68 0 2.76.48 3.48 1.44.72.96 1.08 2.52 1.08 4.68v8.16c0 .84 0 1.32.12 1.56s.24.36.48.48c.12.12.36.12.6.12.48 0 .72.12.72.48 0 .12 0 .12-.12.24-.12 0-.48.12-.84.12h-.48c-.12 0-.36 0-.84-.12h-3c-.24.12-.48.12-.72.12s-.36-.12-.48-.12-.12-.12-.12-.24c0-.24.24-.36.6-.48.24 0 .36 0 .36-.12.24-.12.36-.36.48-.6s.12-.72.12-1.32v-8.88c0-1.44-.24-2.4-.6-3-.48-.6-1.2-.84-2.16-.84-1.2 0-2.04.36-2.52 1.08-.6.72-.84 1.8-.84 3.24v9c0 .48 0 .84.12.96.12.24.36.36.6.36.12.12.36.12.48.12.36.12.48.24.48.48 0 .12 0 .12-.12.24 0 0-.24.12-.36.12 0 0-.12 0-.24-.12h-4.68c-.12.12-.24.12-.24.12-.36 0-.48-.12-.6-.12-.12-.12-.24-.24-.24-.36 0-.24.36-.36.84-.48h.24c.12-.12.36-.36.48-.6s.12-.72.12-1.2M254.76 131.6v-9.72h-.72c-.48 0-.72 0-.84-.12-.12 0-.24-.12-.24-.36 0-.12.36-.48.96-.96.6-.6 1.08-1.08 1.44-1.68.48-.6.84-1.2 1.2-1.92s.6-1.08.72-1.08.24 0 .36.12V120.44h2.04c.36 0 .6 0 .72.12s.12.24.12.6c0 .24 0 .48-.12.48-.12.12-.24.24-.48.24h-2.28v9.72c0 1.68.12 2.76.24 3.24.12.36.36.48.72.48.48 0 .84-.24 1.2-.72s.6-.84.72-.84.12.12.24.12l.12.12c0 .84-.36 1.56-1.08 2.4-.72.84-1.56 1.2-2.28 1.2-1.08 0-1.8-.48-2.16-1.32-.48-.84-.6-2.4-.6-4.68M276.12 134.48c0 .6 0 .96.12 1.2s.24.36.48.48c.12 0 .24 0 .48.12.6 0 .96.24.96.6 0 .12-.12.24-.12.24-.12 0-.36.12-.6.12 0 0-.24 0-.48-.12h-4.32c-.72 0-1.08.12-1.32.12-.36 0-.72-.12-.84-.12-.12-.12-.12-.24-.12-.36s.12-.24.48-.36c.24-.12.48-.12.6-.24.36-.12.6-.24.84-.48.12-.24.24-.72.24-1.44v-17.52c0-.48-.12-.84-.24-1.08 0-.24-.24-.36-.48-.48-.12 0-.24-.12-.48-.12-.6 0-.96-.24-.96-.6 0-.12.12-.24.24-.24.12-.12.24-.12.6-.12h.24c.96 0 1.92.12 2.76.12.36 0 .96-.12 1.56-.12h1.56c.36 0 .6 0 .72.12s.24.12.24.36-.24.36-.84.48c-.12.12-.24.12-.24.12-.48 0-.72.12-.84.24-.24.24-.24.6-.24 1.32M282 134.48V123.8c0-.36-.12-.6-.12-.72-.12-.12-.24-.24-.48-.36h-.48c-.24 0-.48-.12-.48-.24 0-.24.36-.48 1.2-.96.24-.12.48-.24.6-.24.48-.24.84-.48 1.32-.84.48-.24.72-.48.84-.48s.12.12.24.12v2.16c0 .12 0 .12.12.12 0 .12 0 .12.12.12 0 0 .24-.12.48-.36s.48-.48.72-.6c.72-.48 1.32-.96 1.92-1.2.6-.24 1.2-.36 1.8-.36 1.56 0 2.64.48 3.36 1.44.72.96 1.08 2.52 1.08 4.68v8.16c0 .84 0 1.32.12 1.56s.36.36.6.48c.12.12.24.12.6.12.48 0 .72.12.72.48 0 .12-.12.12-.24.24-.12 0-.36.12-.84.12h-.48c-.12 0-.36 0-.84-.12H291c-.36.12-.6.12-.84.12s-.36-.12-.48-.12c0 0-.12-.12-.12-.24 0-.24.24-.36.6-.48.24 0 .36 0 .36-.12.24-.12.48-.36.48-.6.12-.24.12-.72.12-1.32v-8.88c0-1.44-.12-2.4-.6-3-.48-.6-1.08-.84-2.16-.84s-1.92.36-2.52 1.08c-.6.72-.84 1.8-.84 3.24v9c0 .48 0 .84.12.96.12.24.36.36.6.36.12.12.36.12.6.12.24.12.48.24.48.48 0 .12-.12.12-.12.24-.12 0-.24.12-.48.12 0 0-.12 0-.24-.12h-4.68c-.12.12-.24.12-.24.12-.36 0-.48-.12-.6-.12-.12-.12-.12-.24-.12-.36 0-.24.24-.36.72-.48h.24c.24-.12.36-.36.48-.6s.24-.72.24-1.2M307.32 122.84v.36c0 .6-.12.84-.12.96-.12.12-.24.24-.48.24s-.6-.36-.72-.96c-.12-.24-.24-.48-.24-.6-.36-.72-.72-1.2-1.08-1.56-.48-.24-.96-.48-1.56-.48-.72 0-1.44.24-1.92.72s-.72 1.08-.72 1.8v.72c.12.12.24.36.36.6.36.48 1.08 1.08 2.28 1.68 1.2.72 2.04 1.2 2.52 1.56.84.6 1.44 1.2 1.92 1.92.36.84.6 1.56.6 2.52 0 1.56-.6 2.88-1.68 3.84-1.2 1.08-2.64 1.56-4.56 1.56-1.44 0-2.52-.12-3.12-.48-.48-.24-.72-.72-.72-1.44v-2.52c0-.48 0-.84.12-1.08 0-.12.24-.12.36-.12.24 0 .36 0 .48.12.24.12.36.36.48.72 0 .12.12.24.12.36.96 2.4 2.04 3.6 3.36 3.6.72 0 1.32-.36 1.8-.84.48-.6.72-1.32.72-2.28 0-.6-.12-1.08-.36-1.68-.12-.48-.48-.84-.96-1.32-.36-.36-1.08-.84-2.16-1.44-1.2-.6-2.04-1.08-2.64-1.56-.36-.36-.72-.84-.96-1.32-.24-.48-.36-1.08-.36-1.68 0-1.32.48-2.52 1.56-3.36 1.08-.96 2.4-1.44 4.2-1.44 1.2 0 2.04.12 2.64.36.48.12.84.36.84.84v.6M311.88 131.6v-9.72h-.72c-.36 0-.72 0-.84-.12-.12 0-.12-.12-.12-.36 0-.12.24-.48.84-.96.6-.6 1.2-1.08 1.56-1.68.36-.6.72-1.2 1.08-1.92.36-.72.6-1.08.84-1.08.12 0 .24 0 .24.12.12 0 .12.12.12.36v4.2h2.04c.36 0 .6 0 .6.12.12.12.12.24.12.6 0 .24 0 .48-.12.48 0 .12-.24.24-.48.24h-2.16v9.72c0 1.68 0 2.76.24 3.24.12.36.36.48.72.48s.72-.24 1.2-.72c.36-.48.6-.84.72-.84l.12.12c.12 0 .12.12.12.12 0 .84-.36 1.56-1.08 2.4-.72.84-1.44 1.2-2.16 1.2-1.08 0-1.8-.48-2.16-1.32-.48-.84-.72-2.4-.72-4.68M321.24 115.76c0-.72.12-1.2.48-1.56.24-.48.6-.6.96-.6.48 0 .84.12 1.2.48.24.48.36.96.36 1.68 0 .6-.12 1.2-.48 1.56-.24.36-.6.6-1.08.6-.36 0-.72-.24-1.08-.6-.24-.36-.36-.96-.36-1.56zm-.24 18.72v-10.44c0-.48-.12-.72-.12-.84-.12-.12-.24-.24-.48-.24-.12 0-.24-.12-.36-.12-.36 0-.48-.12-.6-.24 0-.24.36-.48.84-.6.36-.12.72-.24.96-.36.6-.36 1.08-.72 1.68-1.08.48-.36.84-.48.84-.48.12 0 .12 0 .24.12v14.76c0 .48.12.84.24.96.12.24.24.36.6.36.12.12.24.12.48.12.24.12.48.24.48.48 0 .12-.12.12-.12.24-.12 0-.24.12-.48.12 0 0-.12 0-.24-.12h-4.56c-.24.12-.24.12-.36.12-.24 0-.48-.12-.6-.12-.12-.12-.12-.24-.12-.36 0-.24.24-.36.84-.48h.12c.24-.12.36-.36.48-.6s.24-.72.24-1.2zM328.92 131.6v-9.72h-.72c-.36 0-.6 0-.72-.12-.12 0-.24-.12-.24-.36 0-.12.36-.48.96-.96.6-.6 1.08-1.08 1.44-1.68.36-.6.84-1.2 1.2-1.92s.6-1.08.72-1.08.24 0 .24.12c.12 0 .12.12.12.36v4.2h2.04c.36 0 .6 0 .72.12 0 .12.12.24.12.6 0 .24-.12.48-.12.48-.12.12-.24.24-.6.24h-2.16v9.72c0 1.68.12 2.76.24 3.24.12.36.36.48.72.48s.84-.24 1.2-.72.6-.84.72-.84c0 0 .12.12.24.12v.12c0 .84-.24 1.56-.96 2.4-.84.84-1.56 1.2-2.28 1.2-1.08 0-1.8-.48-2.16-1.32-.48-.84-.72-2.4-.72-4.68M337.92 131.72v-8.4c0-.72 0-1.32-.12-1.56-.12-.12-.36-.36-.6-.48-.12-.12-.24-.12-.6-.12s-.6-.12-.6-.36 0-.36.24-.36c.12-.12.48-.12 1.08-.12h.48c.36.12.48.12.72.12 0 0 .12 0 .48-.12h1.08c.36 0 .6.12.72.24s.24.24.24.6v11.16c0 1.32.24 2.28.6 2.88.48.6 1.08.96 2.16.96s1.92-.36 2.52-1.08c.6-.72.84-1.8.84-3.36v-9c0-.48-.12-.84-.24-1.08-.12-.24-.24-.36-.6-.36 0-.12-.24-.12-.36-.12-.36-.12-.48-.24-.48-.36 0-.24 0-.24.12-.36 0-.12.24-.12.36-.12h.48c.24.12.36.12.48.12.24 0 .6 0 1.08-.12h1.2c.36 0 .6.12.84.24.12.12.12.24.12.6v12.6c0 .36.12.6.12.72.12.12.24.24.48.36h.48c.24 0 .48.12.48.24 0 .24-.36.48-.96.84-.36.24-.6.48-.84.6l-1.44.72-.72.48c-.12 0-.12-.12-.24-.12v-2.16s0-.12-.12-.12h-.12c-.12 0-.24.12-.48.36s-.48.36-.72.48c-.6.6-1.2.96-1.8 1.2-.6.24-1.2.36-1.92.36-1.56 0-2.64-.48-3.36-1.44-.72-.96-1.08-2.4-1.08-4.56M355.44 131.6v-9.72h-.84c-.36 0-.6 0-.72-.12-.12 0-.24-.12-.24-.36 0-.12.36-.48.96-.96.6-.6 1.08-1.08 1.44-1.68.36-.6.84-1.2 1.2-1.92s.6-1.08.72-1.08.24 0 .24.12c.12 0 .12.12.12.36v4.2h2.04c.36 0 .6 0 .72.12 0 .12.12.24.12.6 0 .24-.12.48-.12.48-.12.12-.24.24-.6.24h-2.16v9.72c0 1.68.12 2.76.24 3.24.12.36.36.48.72.48.48 0 .84-.24 1.2-.72s.6-.84.72-.84.12.12.24.12l.12.12c0 .84-.36 1.56-1.08 2.4-.72.84-1.56 1.2-2.28 1.2-1.08 0-1.8-.48-2.16-1.32-.48-.84-.6-2.4-.6-4.68M369.84 120.8c-.48 0-.84.12-1.32.36-.36.24-.72.6-.96 1.2-.48.6-.72 1.2-.96 1.92s-.36 1.32-.36 1.8c0 .36.12.48.36.72.24.12.6.12 1.2.12 1.8 0 3-.12 3.6-.48.48-.24.72-.84.72-1.8 0-1.2-.24-2.16-.6-2.88-.48-.72-.96-.96-1.68-.96zm2.16 6.96h-4.56c-.6 0-.96.12-1.08.24-.12.12-.12.48-.12.96 0 2.16.36 3.84 1.08 5.04.84 1.32 1.92 1.92 3.24 1.92.6 0 1.08-.12 1.68-.36.48-.24.96-.6 1.32-.96.12-.24.36-.6.48-.96.24-.48.48-.6.72-.6.12 0 .12 0 .24.12 0 0 .12.12.12.36 0 .96-.6 1.92-1.8 2.88-1.08.96-2.4 1.44-3.84 1.44-1.92 0-3.48-.84-4.8-2.52-1.2-1.56-1.8-3.6-1.8-6 0-2.76.6-5.04 1.92-6.72 1.32-1.8 2.88-2.64 4.92-2.64 1.68 0 2.88.6 3.84 1.68.96 1.2 1.44 2.76 1.44 4.68 0 .72-.12 1.08-.24 1.2-.12.12-.6.24-1.32.24H372z"/>
    </g>
</svg>
