<svg xmlns="http://www.w3.org/2000/svg" width="15" height="15" viewBox="0 0 15 15">
    <g fill="#000" fill-rule="evenodd">
        <path fill-rule="nonzero" d="M7.5 0A7.496 7.496 0 0 0 0 7.5C0 11.646 3.355 15 7.5 15c4.146 0 7.5-3.355 7.5-7.5C15 3.354 11.645 0 7.5 0zm0 13.828A6.325 6.325 0 0 1 1.172 7.5 6.325 6.325 0 0 1 7.5 1.172 6.325 6.325 0 0 1 13.828 7.5 6.325 6.325 0 0 1 7.5 13.828z"/>
        <path d="M7.788 3.462H5.77c-.318 0-.577.275-.577.615 0 .34.259.615.577.615h2.02c.477 0 .865.414.865.923 0 .509-.388.923-.866.923h-.576c-.32 0-.577.275-.577.615v.886c0 .34.258.615.577.615.318 0 .576-.276.576-.615v-.27c1.114 0 2.02-.967 2.02-2.154 0-1.187-.906-2.153-2.02-2.153z"/>
        <circle cx="7.212" cy="10.096" r="1"/>
    </g>
</svg>
