<svg xmlns="http://www.w3.org/2000/svg" width="663" height="116" viewBox="0 0 663 116">
    <g fill="#000" fill-rule="nonzero">
        <path d="M650.3 2.5c-7.1-1.8-14.5 1.5-17.8 8l-43.9 83.1a6.88 6.88 0 0 1-6.4 3.8c-2.7 0-5.2-1.4-6.4-3.8L532 10.5c-4.1-7.7-13.6-10.7-21.4-6.6-5.2 2.7-8.5 8.1-8.5 14v88.6c-.2 4.2 3.1 7.7 7.3 7.9 4.2.2 7.7-3.1 7.9-7.3V17.9c0-.3-.1-.8.4-.9.5-.1.6.4.8.6l43.8 83.1c5.8 11 19.3 15.2 30.3 9.4 4-2.1 7.3-5.4 9.4-9.4l44-83.1c.1-.3.3-.7.8-.6.5.1.4.6.4.9v88.6c-.1 4.2 3.2 7.7 7.4 7.9 4.2.1 7.7-3.1 7.9-7.3V17.9c-.1-7.3-5.1-13.7-12.2-15.4zM128.6 3.6c-3.7-1.9-8.3-.5-10.2 3.2l-48 91c-.9 1.8-2.3 2.8-3.7 2.8-1.4 0-2.8-1-3.7-2.8l-48-91C13.4 2.9 8.9 1.1 5 2.7 1.1 4.3-.7 8.8.9 12.7l.6 1.2 48 91c3.6 6.8 10 10.9 17.2 10.9 7.2 0 13.6-4.1 17.2-10.9l48-91c2-3.8.5-8.4-3.3-10.3.1 0 0 0 0 0zM186.5 0c-32 0-58 26-58 58s26 58 58 58c18.3 0 35.6-8.7 46.5-23.4 2.7-3.2 2.3-8-.9-10.7-3.2-2.7-8-2.3-10.7.9-.1.1-.2.3-.3.4l-.2.3c-14.1 19-40.9 22.9-59.9 8.8-8.7-6.5-14.6-16-16.6-26.7h92.5c4.2 0 7.6-3.4 7.6-7.6 0-32-26-58-58-58zm-42.1 50.4c4.2-23.3 26.5-38.7 49.8-34.4 17.5 3.2 31.3 16.9 34.4 34.4h-84.2zM368.2 58c0-32-26-58-58-58s-58 26-58 58 26 58 58 58c18.3 0 35.6-8.7 46.5-23.4 2.4-3.4 1.6-8.2-1.8-10.6-3.3-2.4-7.9-1.7-10.4 1.5-14.1 19-40.9 22.9-59.9 8.8-8.7-6.5-14.6-16-16.6-26.7h92.5c4.3 0 7.7-3.4 7.7-7.6zm-100.1-7.6c4.2-23.3 26.5-38.7 49.8-34.4 17.5 3.2 31.3 16.9 34.4 34.4h-84.2zM445 13.3c-3.5-6.6-9.8-10.6-16.7-10.6-6.9 0-13.2 4-16.7 10.6L364.3 103c-2.1 3.7-.7 8.3 2.9 10.4 3.7 2.1 8.3.7 10.4-2.9l.2-.3 13-24.7h55.9c4.1 0 7.5-3.4 7.5-7.5s-3.4-7.5-7.5-7.5h-48l26.4-50c.8-1.6 2-2.5 3.3-2.5 1.3 0 2.4.9 3.3 2.5l47.4 89.7c2.1 3.7 6.7 5 10.4 2.9 3.5-2 4.9-6.4 3.1-10L445 13.3z"/>
    </g>
</svg>
