<svg xmlns="http://www.w3.org/2000/svg" width="191" height="30" viewBox="0 0 191 30">
    <g fill="#696566" fill-rule="nonzero">
        <path d="M82.041 27.18L73.828 4.308c-.106-.317-.262-.734-.262-1.1 0-.992.838-1.933 2.038-1.933 1.047 0 1.73.68 2.042 1.671l6.806 19.709 6.856-19.764c.312-.937.94-1.617 1.982-1.617h.212c1.102 0 1.782.68 2.094 1.617l6.799 19.764 6.914-19.813c.261-.84.832-1.568 1.935-1.568 1.15 0 1.989.885 1.989 1.881 0 .365-.16.781-.262 1.1l-8.266 22.925c-.422 1.198-1.256 1.826-2.2 1.826h-.156c-1.048 0-1.834-.628-2.203-1.826L93.4 7.744 86.595 27.18c-.366 1.198-1.154 1.826-2.197 1.826h-.11c-.992 0-1.826-.628-2.247-1.826M141.915 3.269c0-1.104.89-2.046 1.989-2.046 1.159 0 2.046.89 2.046 2.046V7.91c1.99-4.508 6.404-6.635 9.329-6.635 1.211 0 1.997.89 1.997 2.042 0 1.103-.73 1.886-1.787 2.043-5.244.629-9.538 4.562-9.538 12.375v9.191c0 1.102-.837 2.043-1.99 2.043a2.016 2.016 0 0 1-2.045-2.043l-.001-23.657zM170.227 29.224c-7.296 0-13.253-5.659-13.253-13.958v-.107c0-7.729 5.395-13.955 12.74-13.955 7.854 0 12.326 6.48 12.326 13.591a1.859 1.859 0 0 1-1.851 1.874h-19.203c.56 5.806 4.615 9.073 9.346 9.073 3.29 0 5.695-1.297 7.65-3.113.31-.257.668-.464 1.133-.464.972 0 1.746.779 1.746 1.716 0 .465-.205.934-.621 1.293-2.514 2.436-5.496 4.05-10.013 4.05zm7.858-15.514c-.413-4.881-3.188-9.131-8.479-9.131-4.622 0-8.115 3.888-8.622 9.131h17.101zM113.304 20.824v-.105c0-5.695 4.705-8.73 11.549-8.73 3.45 0 5.906.47 8.315 1.154v-.945c0-4.857-2.988-7.37-8.052-7.37-2.718 0-4.301.347-6.291 1.233a2.022 2.022 0 0 1-.725.159c-.941 0-1.781-.786-1.781-1.725 0-.834.364-1.35 1.1-1.676 2.661-1.155 4.667-1.539 8.115-1.539 3.812 0 6.74.99 8.722 2.978 1.833 1.828 2.774 4.44 2.774 7.892v14.91c0 1.146-.836 1.985-1.94 1.985-1.145 0-1.921-.837-1.921-1.881v-2.578c-1.885 2.462-5.024 4.653-9.77 4.653-5.02-.004-10.095-2.875-10.095-8.415m19.915-2.092V16.12c-1.99-.574-4.659-1.15-7.949-1.15-5.062 0-7.889 2.197-7.889 5.591v.104c0 3.396 3.133 5.382 6.795 5.382 4.963 0 9.043-3.032 9.043-7.313M8.829 2.971C7.944 1.031 5.756.152 3.714 1.06 1.669 1.969.916 4.236 1.84 6.178l8.576 18.64c1.349 2.922 2.77 4.453 5.438 4.453 2.85 0 4.092-1.667 5.44-4.452 0 0 7.48-16.288 7.555-16.458.076-.172.316-.698 1.077-.694a1.19 1.19 0 0 1 1.185 1.208v15.928c0 2.455 1.361 4.468 3.981 4.468 2.618 0 4.033-2.013 4.033-4.468V11.769c0-2.514 1.801-4.145 4.256-4.145s4.089 1.69 4.089 4.145v13.034c0 2.455 1.366 4.468 3.981 4.468 2.618 0 4.04-2.013 4.04-4.468V11.769c0-2.514 1.794-4.145 4.25-4.145 2.452 0 4.092 1.69 4.092 4.145v13.034c0 2.455 1.364 4.468 3.982 4.468 2.616 0 4.036-2.013 4.036-4.468V9.969c0-5.451-4.383-9.27-9.659-9.27-5.268 0-8.568 3.645-8.568 3.645C51.87 2.07 49.452.704 45.36.704c-4.317 0-8.096 3.64-8.096 3.64C35.51 2.07 32.522.704 30.049.704c-3.827 0-6.865 1.682-8.719 5.921l-5.476 12.909L8.829 2.97zM182.366 4.586v-.022c0-1.824 1.48-3.36 3.34-3.36a3.336 3.336 0 0 1 3.346 3.346v.014c0 1.83-1.476 3.366-3.346 3.366a3.327 3.327 0 0 1-3.34-3.344m6.044-.022v-.009c0-1.5-1.159-2.73-2.704-2.73-1.531 0-2.707 1.251-2.707 2.739v.017c0 1.496 1.162 2.726 2.707 2.726 1.526 0 2.704-1.248 2.704-2.743"/>
        <path d="M184.427 3.241c0-.198.16-.357.36-.357h1.115c.42 0 .744.119.946.331.183.179.283.438.283.738v.01c0 .51-.257.82-.646.985l.492.6c.07.09.115.163.115.273a.332.332 0 0 1-.337.328c-.159 0-.266-.082-.35-.184l-.694-.878h-.569v.705a.35.35 0 0 1-.353.355.355.355 0 0 1-.36-.355v-2.55h-.001zm1.435 1.215c.348 0 .54-.181.54-.457v-.011c0-.302-.206-.464-.552-.464h-.711v.931h.723v.001z"/>
    </g>
</svg>
