<svg xmlns="http://www.w3.org/2000/svg" width="178" height="178" viewBox="0 0 178 178">
    <defs>
        <linearGradient id="a" x1="50%" x2="50%" y1="0%" y2="38.855%">
            <stop offset="2.504%" stop-color="#FF6B89"/>
            <stop offset="100%" stop-color="#D10651"/>
        </linearGradient>
    </defs>
    <path fill="url(#a)" fill-rule="evenodd" d="M971.874 528l-7.412 9.754-9.876-7.244-5.35 11.02-11.107-5.167-3.098 11.854-11.898-2.91-.739 12.227-12.238-.544 1.654 12.137-12.108 1.855 4 11.58-11.509 4.198 6.197 10.567-10.47 6.363 8.122 9.172-9.042 8.265 9.753 7.412-7.244 9.88 11.02 5.35-5.167 11.105 11.853 3.095-2.91 11.901 12.227.738-.544 12.238 12.14-1.657 1.852 12.112 11.58-4 4.199 11.509 10.57-6.196 6.36 10.469 9.172-8.121 8.265 9.04 7.41-9.754 9.878 7.244 5.352-11.02 11.106 5.168 3.099-11.852 11.897 2.907.738-12.224 12.24.544-1.657-12.14 12.11-1.852-4.002-11.581 11.51-4.197-6.196-10.57 10.469-6.36-8.122-9.17 9.044-8.27-9.755-7.412 7.244-9.876-11.022-5.351 5.17-11.105-11.854-3.098 2.91-11.898-12.226-.74.544-12.24-12.139 1.658-1.854-12.11-11.581 3.998-4.196-11.507-10.57 6.197-6.362-10.469-9.169 8.12z" transform="translate(-887 -528)"/>
</svg>
