<svg xmlns="http://www.w3.org/2000/svg" width="198" height="71" viewBox="0 0 198 71">
    <defs>
        <linearGradient id="a" x1="0%" x2="74.81%" y1="100%" y2="0%">
            <stop offset="0%" stop-color="#F58227"/>
            <stop offset="100%" stop-color="#F99F27"/>
        </linearGradient>
    </defs>
    <path fill="url(#a)" fill-rule="nonzero" d="M48.31 70.33a7.74 7.74 0 0 1-1.902-.904L3.872 41.489c-3.4-2.233-4.218-6.618-1.827-9.794a7.299 7.299 0 0 1 1.827-1.707L46.408 2.053A7.844 7.844 0 0 1 50.415.777c.362-.049.73-.075 1.107-.075h138.886c4.157 0 7.526 3.147 7.526 7.03V63.97c0 3.882-3.37 7.03-7.526 7.03H51.522a7.942 7.942 0 0 1-3.212-.671zM29.284 41.474c4.147 0 7.51-3.147 7.51-7.03 0-3.882-3.363-7.03-7.51-7.03-4.146 0-7.509 3.148-7.509 7.03 0 3.883 3.362 7.03 7.51 7.03h-.001z"/>
</svg>
