<?xml version="1.0" encoding="utf-8"?>
<!-- Generator: Adobe Illustrator 19.2.1, SVG Export Plug-In . SVG Version: 6.00 Build 0)  -->
<svg version="1.0" id="Layer_1" xmlns="http://www.w3.org/2000/svg" xmlns:xlink="http://www.w3.org/1999/xlink" x="0px" y="0px"
	 width="20px" height="20px" class="svg-element" viewBox="0 0 10 13" style="enable-background:new 0 0 10 13;" xml:space="preserve">
<style type="text/css">
	.st0{fill:#7A8EA5;}
</style>
<g>
	<path class="st0" d="M9.4,4.2L8.5,4.9c0.2,0.5,0.4,1,0.4,1.6c0,2.1-1.7,3.7-3.7,3.8V8.7l-2.6,2.1L5.2,13v-1.6
		c2.7,0,4.8-2.2,4.8-4.8C10,5.7,9.8,4.9,9.4,4.2z"/>
	<path class="st0" d="M4.8,2.7v1.6l2.6-2.1L4.8,0v1.6C2.2,1.6,0,3.8,0,6.4c0,0.8,0.2,1.6,0.6,2.3l0.9-0.7C1.2,7.6,1.1,7,1.1,6.4
		C1.1,4.4,2.8,2.7,4.8,2.7z"/>
</g>
</svg>
