<?xml version="1.0" encoding="utf-8"?>
<!-- Svg Vector Icons : http://www.onlinewebfonts.com/icon -->
<!DOCTYPE svg PUBLIC "-//W3C//DTD SVG 1.1//EN" "http://www.w3.org/Graphics/SVG/1.1/DTD/svg11.dtd">
<svg version="1.1" xmlns="http://www.w3.org/2000/svg" xmlns:xlink="http://www.w3.org/1999/xlink" x="0px" y="0px" viewBox="0 0 1000 1000" enable-background="new 0 0 1000 1000" xml:space="preserve">
<metadata> Svg Vector Icons : http://www.onlinewebfonts.com/icon </metadata>
<g><g><path fill="#fff" d="M390.9,9.9C180.6,9.9,10,180.5,10,390.9c0,210.4,170.6,380.9,380.9,380.9c80.9,0,155.9-25.2,217.6-68.2l0,0l282.5,282.5c5.2,5.2,13.6,5.4,19,0l76.1-76.1c5.2-5.2,5-13.9,0-19L703.7,608.5c43-61.7,68.2-136.7,68.2-217.6C771.9,180.5,601.3,9.9,390.9,9.9z M390.9,682.2C230,682.2,99.6,551.8,99.6,390.9C99.6,230,230,99.6,390.9,99.6c160.9,0,291.3,130.4,291.3,291.3C682.2,551.8,551.8,682.2,390.9,682.2z"/></g><g></g><g></g><g></g><g></g><g></g><g></g><g></g><g></g><g></g><g></g><g></g><g></g><g></g><g></g><g></g></g>
</svg>